<svg width="24" height="19" viewBox="0 0 24 19" fill="none" xmlns="http://www.w3.org/2000/svg">
<path d="M12.884 6.12927C13.2436 6.30712 13.8226 6.17743 14.1466 6.14284C14.1525 6.14219 14.1584 6.14156 14.1643 6.14093C14.1901 6.13777 14.2153 6.13578 14.2405 6.13462C14.2715 6.13139 14.3029 6.13142 14.3384 6.13252C14.4721 6.14283 14.6211 6.12869 15.1255 6.15542C15.2571 6.21132 15.3942 6.27505 15.5365 6.34623C16.1289 6.64114 16.7941 7.08941 17.4842 7.62786C17.7158 7.57872 18.2653 8.83029 18.7493 10.5589C18.7568 10.5956 18.7645 10.6331 18.7727 10.6717C18.7941 10.7738 18.8179 10.8819 18.8445 10.9939C18.875 11.1762 18.861 11.4068 18.8886 11.6354C18.9318 11.9689 18.9044 12.2861 18.8705 12.5461C18.7168 12.9834 18.4674 13.4447 18.1555 13.8827C17.7881 14.5127 16.7241 15.0547 15.5054 15.288C14.9442 15.4016 14.351 15.4666 13.7446 15.494C13.186 15.5191 12.6165 15.5148 12.0424 15.4896C11.7082 15.4324 11.391 15.3611 11.0974 15.2923C10.6833 15.1956 10.3155 15.104 10.0079 15.0612C9.268 14.9584 8.40856 14.9725 7.76333 14.9791C7.65792 14.9803 7.55881 14.9813 7.46641 14.9816C7.16523 14.9354 6.86281 14.8879 6.56074 14.8399C6.47151 14.8179 6.40797 14.7894 6.36136 14.7596C6.34715 14.7752 6.33257 14.7915 6.31667 14.8076C6.11513 14.9956 5.94831 14.9555 5.70384 14.5416C5.59748 14.3558 5.47841 14.0824 5.34529 13.6947C5.26003 13.4442 5.12853 13.3229 5.01959 13.2229C4.98766 13.1932 4.95786 13.1649 4.93231 13.135C4.84475 13.0322 4.88571 12.8925 4.93567 12.7263C5.00018 12.5101 5.08149 12.2513 4.90754 11.9345C4.73015 11.6115 4.61832 11.3224 4.53815 11.0545C4.42779 10.7159 4.57273 10.4726 4.69423 10.3099C4.74725 10.2379 4.79726 10.1764 4.82696 10.115C4.92154 9.9165 4.87241 9.64536 4.81454 9.4219C4.79152 9.33752 4.8263 9.23016 4.89186 9.14677L4.662 9.50051C4.7979 9.38169 4.97313 9.27906 5.13516 9.2108C5.25248 9.16115 5.37015 9.05419 5.51741 8.9344C5.66926 8.81071 5.85415 8.67299 6.08754 8.581C6.67821 8.35358 7.00887 8.28314 7.27199 8.22037C7.34733 8.20344 7.41776 8.18841 7.4885 8.17483C7.712 8.13167 7.9864 8.07224 8.26968 8.02699C8.39509 8.00681 8.52197 7.98921 8.64608 7.97576L8.46245 8.01315C8.66044 8.01013 8.90128 8.01162 9.11875 8.02004C10.0165 7.84836 10.993 7.58159 11.8608 7.27637C12.3092 7.12032 12.6831 6.78158 12.8862 6.33919C13.0918 5.89559 13.114 5.3879 12.9674 4.91631C12.8178 4.44531 12.5112 4.0429 12.1181 3.77927C11.7265 3.51548 11.2821 3.41253 10.8811 3.47509C10.0538 3.60793 9.31813 3.66892 8.46977 3.70971C8.26288 3.72166 8.03526 3.73594 7.77969 3.76387C7.74667 3.77285 7.64478 3.7862 7.61262 3.79789C6.60989 3.99137 5.60319 4.32437 4.65916 4.84153C3.84013 5.28964 3.06532 5.86683 2.39684 6.56011C2.3279 6.63153 2.26051 6.70386 2.19387 6.77758C2.0741 6.87101 1.95634 6.96807 1.84199 7.06777C1.77298 7.16746 1.56312 7.44364 1.52333 7.55816C1.07126 8.30001 0.864583 9.02737 0.781068 9.56684C0.699063 10.116 0.781744 10.5146 0.864288 10.8441C0.922335 11.0717 0.9833 11.2684 1.01455 11.4745C1.03106 11.5823 1.05248 11.7293 1.0877 11.908C1.08799 11.9102 1.08829 11.9124 1.08858 11.9146C1.14068 12.2479 1.20495 13.1198 1.52227 13.9957C1.66382 14.3815 1.89129 14.8421 2.16421 15.29C2.54544 15.9344 3.06754 16.5281 3.31042 16.8704C3.70724 17.4937 4.58472 18.0322 5.33976 18.1818C5.67815 18.259 5.97948 18.2843 6.24281 18.3C6.43796 18.308 6.60251 18.331 6.71655 18.3855C6.97054 18.5075 7.20066 18.4882 7.54204 18.4589C7.77943 18.4385 8.07044 18.4136 8.46361 18.4255C8.91791 18.4391 9.24482 18.394 9.52243 18.3546C9.91341 18.2989 10.2065 18.2553 10.6352 18.3918C11.1129 18.5433 11.621 18.6418 12.0282 18.609C12.2112 18.5942 12.4256 18.6011 12.6449 18.6058C12.9388 18.6122 13.2484 18.6142 13.5308 18.5599C13.7631 18.5152 13.9543 18.4103 14.119 18.3161C14.1712 18.2867 14.2211 18.2584 14.2693 18.2331C14.4551 18.2226 14.6413 18.2102 14.829 18.1959C14.8606 18.2085 14.894 18.2225 14.9289 18.2368C15.1035 18.3088 15.3254 18.3945 15.5932 18.413C16.0187 18.4415 16.381 18.3236 16.7581 18.1807C17.0522 18.0687 17.3556 17.9422 17.7221 17.8388C17.9751 17.7671 18.2722 17.6975 18.57 17.6054C19.0135 17.4707 19.4651 17.2704 19.723 17.0421C19.821 16.9566 19.874 16.841 19.9212 16.7269C19.9213 16.7264 19.9215 16.7258 19.9216 16.7252C19.9248 16.7174 19.9281 16.7097 19.9313 16.702C20.1889 16.5178 20.4375 16.3076 20.6681 16.0714C20.9819 15.7573 21.2822 15.4213 21.5638 15.0558C21.6121 15.0108 21.6607 14.9638 21.7082 14.9168C21.9411 14.6871 22.1572 14.4417 22.3438 14.2952C22.5457 14.1384 22.8671 13.6252 23.1135 12.9797C23.2765 12.5594 23.402 12.083 23.4868 11.6692C23.5371 11.4271 23.4755 11.1865 23.3973 10.9499C23.324 10.7277 23.2373 10.5087 23.2058 10.2583C23.19 10.1325 23.1856 9.99354 23.1741 9.84307C23.174 9.84187 23.1739 9.84068 23.1738 9.83949C23.1806 9.77167 23.1878 9.69766 23.1851 9.62146C23.1824 9.54959 23.1127 9.40419 23.0231 9.19696C22.9676 9.06917 22.9046 8.91826 22.8436 8.75201C22.7836 8.29052 22.7139 7.78891 22.5923 7.24375C22.6122 7.11687 22.6492 6.99701 22.7099 6.8889C22.7534 6.81134 22.8109 6.73717 22.8686 6.65958C22.947 6.55352 23.0268 6.44171 23.0711 6.30352C23.1057 6.19547 23.0924 6.08372 23.0378 6.0255C23.0125 5.99851 22.9789 5.98349 22.9485 5.96999C22.9136 5.95449 22.8826 5.94092 22.8715 5.91285C22.8635 5.89252 22.8717 5.86426 22.8812 5.82931C22.8962 5.77351 22.9151 5.7003 22.8779 5.6155C22.7398 5.30064 22.5303 4.93779 22.2734 4.58548C21.9899 4.19289 21.6451 3.82169 21.356 3.53317C21.3055 3.48232 21.2488 3.4303 21.1865 3.37787C20.9891 3.21581 20.7001 3.0477 20.4011 2.88454C20.1538 2.74936 19.8999 2.61772 19.6891 2.49069C19.4827 2.36615 19.2951 2.19156 19.1029 2.02407C18.8731 1.82329 18.6348 1.63274 18.3784 1.5621C18.3267 1.54791 18.2336 1.58295 18.1184 1.62863C18.0368 1.661 17.9437 1.69866 17.8458 1.72813C17.5567 1.58355 17.2527 1.4518 16.9343 1.33766C16.9268 1.32393 16.9189 1.3099 16.911 1.29567C16.9109 1.29537 16.9108 1.29507 16.9107 1.29478C16.7381 0.976633 16.4367 0.523321 15.8099 0.586189C15.6526 0.603262 15.5426 0.676449 15.4463 0.743222C15.3514 0.808978 15.2688 0.868957 15.1619 0.869392C15.0402 0.869928 14.9053 0.803984 14.7515 0.73713C14.6785 0.705298 14.6013 0.673233 14.5207 0.648049C14.3883 0.60026 14.2461 0.576143 14.1042 0.626076C14.0896 0.631233 14.0738 0.636926 14.0574 0.642654C13.9027 0.696756 13.6752 0.781201 13.4622 0.956789C12.813 1.02634 12.1843 1.15532 11.5811 1.32739C10.5751 1.61468 9.64036 2.01977 8.76851 2.48738C8.34351 2.71564 8.02192 3.11381 7.89073 3.58265C7.75868 4.05258 7.8233 4.54939 8.04669 4.97913C8.27059 5.40933 8.63363 5.7468 9.04219 5.95349C9.45191 6.15913 9.87178 6.2172 10.2351 6.1286C10.8281 5.98231 11.4166 5.88213 11.9856 5.82906C12.0169 5.83201 12.0481 5.83479 12.0788 5.83716C12.3081 5.8548 12.5303 5.95143 12.7405 6.05641C12.7889 6.08052 12.8366 6.10515 12.884 6.12927Z" fill="#D65E40"/>
</svg>
