<svg width="66" height="54" viewBox="0 0 66 54" fill="none" xmlns="http://www.w3.org/2000/svg">
<path d="M28.9158 0.871526C27.3596 0.675284 24.5912 1.88465 23.0436 2.73681C23.0152 2.75167 22.9868 2.76657 22.9584 2.78152C22.5922 2.97836 22.2359 3.15011 21.8166 3.36184C21.2518 3.64942 20.5691 4.00289 19.6064 4.65518C19.2652 4.92828 18.6761 5.35917 17.7877 6.02022C17.1321 6.34974 16.4281 6.71542 15.7053 7.1233C12.4299 9.02582 7.96601 11.8478 5.64443 17.6337C4.48168 20.888 3.17568 24.3859 2.2177 28.3586C1.98072 29.3423 1.78608 30.327 1.62972 31.3195C1.60089 31.4322 1.57178 31.5482 1.54326 31.664C0.974316 33.8956 0.554333 36.881 0.874671 39.0013C1.25435 41.6525 2.05525 43.7822 3.27646 45.5343C3.59706 46.0642 3.98608 46.606 4.44559 47.1168C5.44638 48.1513 6.49741 49.1843 7.7931 50.2291C9.17904 51.2094 10.3686 52.5515 13.8783 53.0802C17.5885 53.2676 20.9897 53.0507 24.3769 52.8367C26.3651 52.7046 28.3336 52.5541 30.2906 52.4111C32.0904 52.2799 33.8866 52.1449 35.6555 52.0283C36.2405 52.0541 36.803 52.0901 37.3308 52.1339C37.7773 52.1647 38.1975 52.1966 38.6192 52.2241C39.9627 52.3142 41.1788 52.3685 42.1961 52.2983C44.6376 52.136 47.497 51.3862 49.7543 50.3912C50.1192 50.2321 50.4674 50.0689 50.7967 49.9061C52.6659 49.2211 54.7849 48.0618 56.474 46.2289C56.5422 46.0708 56.6062 45.9096 56.6665 45.7457C56.7242 45.589 56.7834 45.4324 56.8439 45.2752C57.0398 44.0852 58.0082 42.968 59.5396 40.9458C60.2548 39.9802 61.1084 38.7917 61.921 37.1395C62.4395 36.0673 62.4195 35.3613 62.3934 34.8145C62.3851 34.6522 62.3757 34.4998 62.3758 34.351C62.3756 33.8401 62.6998 33.4184 63.059 32.8648C63.2435 32.5804 63.436 32.2629 63.5887 31.8906C63.7949 31.4677 63.9342 30.9525 63.8532 30.3165C63.4189 26.9493 64.1944 25.5912 64.7946 24.4989C64.9684 24.1797 65.1232 23.8864 65.2176 23.5774C65.5267 22.5796 65.3459 21.0627 64.9819 19.9002C64.6934 18.9723 64.8639 17.118 64.6213 15.1945C64.5162 14.4799 64.2324 13.4626 63.246 12.0992C63.0451 11.8293 62.792 11.528 62.5092 11.2442C61.9466 10.6735 61.3305 10.0873 60.7207 9.44447C58.7876 7.44142 57.672 6.59657 56.7858 5.87757C56.5335 5.67775 56.2949 5.49388 56.0567 5.31142C55.3462 4.76639 54.4434 4.16068 53.5078 3.57654C53.4365 3.53385 53.3649 3.49158 53.2929 3.44975C51.7141 2.52983 50.0979 1.90052 48.9026 1.4418C45.6531 0.804384 42.6399 0.833931 39.7668 1.08511C38.289 1.2185 36.9353 1.91358 36.0489 2.97935C35.159 4.04683 34.7984 5.3799 34.9622 6.68584C35.128 7.99375 35.7937 9.18622 36.74 10.0729C37.6902 10.9585 38.8376 11.4678 39.9745 11.551C42.2645 11.7131 44.4664 12.1109 46.2513 12.7595C47.0287 13.041 47.7182 13.3694 48.27 13.7149C49.8509 14.6386 51.3616 15.5973 52.7385 16.5763C53.661 17.2321 54.5252 17.9211 55.2044 18.5673C54.6579 17.9451 54.8451 17.9182 54.9207 18.2206C54.9478 18.3009 54.9762 18.3967 55.0045 18.5118C54.876 19.5317 54.5793 21.1006 54.4163 22.1765C54.2838 23.0784 54.3911 23.787 54.4772 24.4041C54.5358 24.8289 54.5824 25.2111 54.5214 25.588C54.4887 25.7898 54.4333 26.0664 54.3636 26.3994C54.1746 27.3103 53.8707 28.6529 53.646 30.1297C53.5968 30.515 53.538 30.9276 53.4786 31.3866C53.4041 31.9934 53.3015 32.8333 53.0572 33.7259C52.7182 34.9958 52.1201 36.3361 51.5837 36.8474C50.8125 37.5828 50.0702 38.615 49.3667 39.7549C49.3188 39.8612 49.2692 39.9635 49.2151 40.0626C48.9443 40.581 48.4475 41.0451 47.9889 41.0413C47.4477 41.0332 47.1183 41.3017 46.4609 41.6955C46.0041 41.9654 45.395 42.2868 44.4335 42.5518C43.3289 42.853 42.4983 43.1633 41.7909 43.4231C40.7863 43.7857 40.0027 44.0432 38.7749 43.859C38.0615 43.7529 37.3508 43.6719 36.657 43.6452C35.9784 43.6232 35.3454 43.655 34.8034 43.7535C34.2903 43.8467 33.6885 43.8872 33.08 43.9264C32.2666 43.979 31.4162 44.0317 30.6506 44.2125C30.0161 44.3617 29.5115 44.6548 29.0615 44.9132C28.9207 44.9938 28.7834 45.0708 28.6539 45.139C28.1461 45.1701 27.6377 45.1977 27.13 45.2201C27.0457 45.1839 26.9569 45.1434 26.8642 45.1016C26.3971 44.8919 25.83 44.6329 25.142 44.5201C24.0532 44.3413 23.12 44.5158 22.133 44.6872C21.3651 44.8202 20.5658 44.9512 19.6569 44.8982C19.0351 44.8619 18.341 44.7419 17.6592 44.6091C16.6487 44.4134 15.6945 44.1858 15.0306 44.2092C14.9804 44.2111 14.9313 44.2181 14.883 44.2293C15.0064 44.3093 15.0306 44.4531 15.0022 44.5771C15.002 44.5781 15.0018 44.579 15.0015 44.58C14.9991 44.5906 14.9963 44.6008 14.9931 44.6111C14.8515 44.5023 13.5268 43.2846 12.647 42.0509C12.5857 41.9219 12.5228 41.7905 12.4615 41.6604C12.3178 41.3564 12.178 41.0508 12.0638 40.7577C12.1575 40.699 12.248 40.6214 12.3607 40.5323C12.6103 40.3752 12.6159 40.0612 12.7062 39.2214C12.7676 38.6987 12.8877 38.0456 13.0825 37.5005C13.1955 37.1836 13.0582 36.8539 12.9274 36.4945C12.8054 36.16 12.6899 35.799 12.7905 35.4336C12.8409 35.2509 12.9437 35.0606 13.0565 34.8597C13.1558 34.6821 13.2629 34.4962 13.3487 34.2958C13.4282 34.1103 13.4346 33.6581 13.4696 33.0724C13.4912 32.7105 13.5238 32.2988 13.5858 31.876C13.5858 31.8756 13.5859 31.8753 13.5859 31.875C14.0322 30.7819 14.5416 29.6619 15.0844 28.517C15.3151 28.3235 15.5747 28.1785 15.8665 28.0985C16.076 28.0409 16.3098 28.0144 16.5491 27.987C16.8748 27.9498 17.2114 27.9119 17.5153 27.7951C17.7529 27.7036 17.8993 27.541 17.8808 27.3829C17.8721 27.3093 17.8284 27.2374 17.789 27.1721C17.7438 27.0973 17.7038 27.0305 17.7271 26.9786C17.744 26.9413 17.8063 26.9208 17.882 26.8952C18.0029 26.8542 18.1593 26.8008 18.2274 26.6482C18.4809 26.0802 18.7227 25.4017 18.9648 24.7231C19.1294 24.2616 19.2941 23.8005 19.4613 23.3778C19.4699 23.3443 19.4876 23.3122 19.5176 23.2857C19.6015 23.2162 19.5435 22.9419 19.6708 22.5242C19.754 22.2389 19.9204 21.9043 20.1457 21.6476C20.3656 21.3957 20.7344 21.2438 21.1168 21.1001C21.5766 20.9263 22.0579 20.761 22.3647 20.3905C22.4268 20.3154 22.4243 20.0845 22.428 19.7932C22.4306 19.5866 22.4384 19.3484 22.4721 19.1146C23.0202 18.8051 23.6073 18.4826 24.2363 18.1337C24.2713 18.1459 24.3073 18.1582 24.3436 18.1709C24.3442 18.1713 24.3449 18.1717 24.3456 18.1721C25.1389 18.4375 26.1972 18.8324 27.247 17.7885C27.2667 17.7567 27.2857 17.7224 27.3041 17.6856C27.4105 17.4726 27.407 17.1968 27.4085 16.9465C27.4101 16.701 27.4166 16.4793 27.5414 16.3699C27.6835 16.2458 27.9389 16.2672 28.2166 16.2955C28.6078 16.3346 29.0393 16.3901 29.3189 16.0462C29.338 16.0227 29.3586 15.9972 29.3804 15.9711C29.5869 15.724 29.9044 15.3604 30.1723 14.7877C31.3814 14.2164 32.6932 13.6692 34.08 13.1226C34.5758 12.9271 35.0813 12.7314 35.5957 12.5336L34.644 12.7009C36.8665 12.3131 38.8038 11.7441 40.654 11.2077L40.2582 11.261C40.363 11.2347 40.4685 11.2097 40.5737 11.1861C41.477 10.9844 42.1942 10.4314 42.8866 9.60354C43.5537 8.75645 44.4603 7.83755 45.1509 6.74498C45.8438 5.66772 45.7701 4.08467 44.5705 2.77978C43.4002 1.48087 41.576 0.763934 39.8822 0.741028C39.6803 0.737818 39.48 0.737218 39.2808 0.739114C39.1853 0.738781 38.9043 0.795151 38.8091 0.802724C36.9257 0.922138 35.1435 1.01816 33.6425 0.948224C33.4128 0.945672 32.7554 1.10585 32.5288 1.14402C32.5084 1.14737 32.4879 1.15074 32.4675 1.15411C32.3537 1.15696 32.2389 1.16109 32.1249 1.16676C31.2763 1.20904 30.4164 1.06993 29.531 0.949156C29.3273 0.921529 29.1225 0.894655 28.9158 0.871526Z" fill="#4C6EB6"/>
</svg>
