<svg width="43" height="34" viewBox="0 0 43 34" fill="none" xmlns="http://www.w3.org/2000/svg">
<path d="M30.8858 8.94839C30.9529 8.99043 31.0266 9.02764 31.1057 9.06078C31.2182 9.33711 31.1317 9.15564 31.3806 9.21766C31.3845 9.21873 31.3884 9.21986 31.3924 9.22104C31.4456 9.23498 31.4953 9.26768 31.5615 9.31919C31.7258 9.46393 31.9569 9.59536 32.8622 10.4889C32.8682 10.4983 32.8741 10.5077 32.8801 10.5172C33.0051 10.7198 33.098 10.8975 33.1706 11.0561C33.3474 11.4606 33.3936 11.672 33.3994 12.0141C33.4016 12.3522 33.2931 12.8888 32.9918 13.5792C32.3931 15.0325 31.1557 16.5455 29.7051 19.2716C29.5436 19.6347 29.3674 19.9943 29.1763 20.3499C29.1465 20.3911 29.1159 20.4328 29.0848 20.4747C28.4899 21.2908 27.6313 22.2183 27.1566 22.8956C26.5571 23.7612 26.1063 24.3624 25.7296 24.8593C25.0075 25.5665 24.2234 26.2391 23.3907 26.874C22.2691 27.8924 19.7473 28.2323 17.31 27.8663C16.224 27.7153 15.1217 27.4533 14.0436 27.1045C13.0493 26.7825 12.0692 26.3897 11.1372 25.9387C10.6238 25.6115 10.1639 25.2671 9.77081 24.9424C9.67035 24.8603 9.57722 24.781 9.49124 24.7054C9.21137 24.4229 9.03646 24.1656 8.87541 23.9602C8.41618 23.3982 7.82533 22.5148 7.45662 21.5881C7.39679 21.4437 7.34114 21.2977 7.29352 21.1645C7.15361 20.3783 7.077 19.5262 7.0391 18.6459C7.00073 18.5908 6.96107 18.5348 6.92058 18.4772C6.41708 17.7647 6.3457 16.7955 6.30625 15.2386C6.29769 14.8944 6.29078 14.5201 6.28135 14.1073C6.27536 13.8839 6.28736 13.6651 6.32519 13.4319C6.37684 13.1303 6.2927 12.914 6.23362 12.7122C6.21664 12.6535 6.20251 12.5971 6.19657 12.5425C6.17716 12.3541 6.36839 12.2588 6.59505 12.174C6.89546 12.058 7.23569 11.9703 7.44087 11.514C8.20218 10.0148 9.2969 9.93261 9.93057 9.91869C10.1295 9.91243 10.3096 9.90882 10.4773 9.872C11.0177 9.75253 11.6566 9.27919 12.1351 8.83761C12.5104 8.48647 13.4862 8.22706 14.2959 8.08389C14.5107 8.04569 14.7618 7.9505 15.0471 7.82418L14.4345 8.03065C14.5498 8.00817 14.6716 7.98272 14.7998 7.95651C15.244 7.86559 15.7638 7.76593 16.3388 7.75007C17.7923 7.71286 18.5753 7.71186 19.2034 7.70559C19.3833 7.70426 19.5503 7.70302 19.7177 7.703C20.2467 7.70278 20.9035 7.67672 21.5746 7.65282C22.3765 7.6242 23.2037 7.59731 23.855 7.61213C24.7308 7.44212 25.548 7.29363 26.6758 6.99663L26.3616 7.05074C26.8848 6.92544 27.3358 6.85653 27.8741 6.84451C28.4445 6.82963 29.112 6.59068 29.7556 6.12923C30.3949 5.66623 30.9391 5.00932 31.1865 4.22299C31.431 3.43841 31.3556 2.57367 30.8731 1.81724C30.3943 1.06404 29.5226 0.491185 28.4718 0.329385C27.5109 0.177331 26.4545 0.137371 25.4819 0.208789C25.4291 0.220647 25.2679 0.238216 25.2163 0.254529C24.5882 0.318251 23.6528 0.372885 22.7765 0.427295C20.7568 0.550614 18.6537 0.710659 16.5429 1.04906C15.3917 1.23324 14.2323 1.45473 13.0649 1.73079C12.9122 1.77921 12.4625 1.89954 12.3243 1.98037C12.0663 2.10746 11.7924 2.23933 11.5141 2.37282C11.386 2.43435 11.2511 2.49906 11.121 2.56148C9.94568 2.86171 8.69237 3.22993 7.81576 3.60363C7.09165 3.90983 6.62063 4.29624 6.22263 4.63831C5.94843 4.87429 5.7081 5.08988 5.42686 5.26279C5.2764 5.35544 5.06711 5.47965 4.81346 5.641C3.81684 6.27634 1.85197 7.65592 0.891312 10.0486C0.471996 11.0717 0.275469 12.4356 0.39482 13.6164C0.412879 13.8141 0.437456 14.0097 0.467536 14.2018C0.683923 15.143 0.878726 15.9885 0.840732 16.4545C0.762926 17.376 0.935997 18.4425 1.13324 19.3936C1.31892 20.3008 1.52945 21.1013 1.48965 21.6021C1.44265 22.2004 1.61728 22.6818 1.93154 23.3906C2.15432 23.8812 2.43679 24.4859 2.87689 25.3249C3.39239 26.2942 3.97665 26.9049 4.49383 27.3619C5.23808 28.0034 5.83524 28.3977 6.63342 29.1286C6.69036 29.1796 6.74849 29.2299 6.80774 29.2794C7.53186 29.923 8.35089 30.4527 9.06398 30.7067C9.40762 30.8291 9.78959 31.0027 10.1914 31.1747C10.7189 31.4009 11.2838 31.6245 11.8299 31.7335C12.2791 31.8231 12.6869 31.7861 13.0427 31.7474C13.1538 31.7354 13.2614 31.7238 13.3626 31.7151C13.7042 31.8185 14.0495 31.9175 14.3963 32.0118C14.4462 32.0512 14.4988 32.094 14.5538 32.1381C14.8292 32.3591 15.1774 32.6284 15.6506 32.8173C16.4007 33.1156 17.1206 33.1391 17.8754 33.1264C18.465 33.1154 19.0782 33.0839 19.7889 33.1193C20.2773 33.1432 20.8384 33.1925 21.4168 33.204C22.2715 33.2254 23.1649 33.1444 23.7574 32.911C23.9764 32.8257 24.1448 32.6668 24.2999 32.5075C24.3005 32.5066 24.3011 32.5058 24.3018 32.5049C24.3123 32.4941 24.323 32.4833 24.3335 32.4725C25.04 32.2638 25.7509 31.9728 26.4331 31.5794C27.0068 31.2598 27.5764 30.9243 28.1399 30.57C28.2448 30.5254 28.3503 30.4792 28.4548 30.4325C28.9654 30.2051 29.4586 29.9653 29.8383 29.8721C30.25 29.7724 31.0641 29.2304 31.8904 28.5851C32.4325 28.1643 32.9795 27.7006 33.4464 27.3285C33.7197 27.111 33.8557 26.7933 33.9864 26.4668C34.1087 26.1616 34.2269 25.8486 34.4586 25.5849C34.5748 25.4526 34.7222 25.3259 34.8787 25.1873C35.0161 25.0656 35.161 24.9343 35.2956 24.7844C35.4204 24.645 35.6075 24.2697 35.8246 23.7811C35.9407 23.5199 36.0654 23.2264 36.1955 22.9181C36.2034 22.8922 36.2122 22.8652 36.2219 22.8374C36.5684 22.3674 37.0933 21.7497 37.6526 21.0807C37.8338 20.986 38.0232 20.9259 38.2225 20.9085C38.3656 20.8957 38.5168 20.9079 38.6731 20.9176C38.8855 20.9312 39.1074 20.9417 39.3251 20.8919C39.4955 20.8527 39.6247 20.7496 39.6468 20.6335C39.6569 20.5798 39.644 20.5241 39.6324 20.4736C39.6192 20.4157 39.6074 20.364 39.6333 20.3285C39.652 20.3029 39.6963 20.2933 39.7505 20.2807C39.8369 20.2608 39.9497 20.2332 40.0254 20.1255C40.3082 19.7233 40.6039 19.2176 40.8858 18.6817C41.1998 18.0874 41.4936 17.4521 41.7493 16.9272C42.0371 16.3426 42.286 15.3787 42.3994 14.3287C42.4812 13.599 42.4931 12.834 42.4787 12.1779C42.4669 11.5341 42.4909 10.855 42.4499 10.1882C42.4044 9.39579 42.2605 8.62521 41.9535 8.08093C41.8915 7.97051 41.7157 7.85974 41.5019 7.75127C41.3494 7.67171 41.174 7.58412 40.9977 7.47964C40.7102 6.85153 40.3811 6.28658 40.0137 5.75146C39.9972 5.72762 39.9807 5.70374 39.964 5.67982C39.9671 5.65403 39.97 5.6275 39.9732 5.60068C39.9733 5.60018 39.9735 5.59969 39.9736 5.59919C40.0452 5.00042 40.1062 4.11115 39.1593 3.49768C38.919 3.34476 38.687 3.31733 38.4799 3.29611C38.276 3.27535 38.0948 3.26022 37.9329 3.13468C37.7483 2.99175 37.6049 2.74128 37.4226 2.46468C37.1703 2.07879 36.8277 1.63441 36.2904 1.44591C36.2539 1.43316 36.2145 1.41979 36.1735 1.40578C35.788 1.27259 35.1863 1.09772 34.5361 1.13242C33.5847 0.78294 32.5594 0.60992 31.5987 0.607355C31.1174 0.61588 30.636 0.637863 30.1552 0.673455C28.2352 0.817862 26.3219 1.16603 24.4342 1.79518C23.5148 2.10135 22.7105 2.76976 22.3191 3.59004C21.9205 4.41333 21.9814 5.27774 22.3582 5.9895C22.735 6.70526 23.3463 7.26021 23.9896 7.65278C24.6382 8.04154 25.2963 8.22239 25.9418 8.16159C26.9943 8.05977 28.1096 8.07128 29.2211 8.16498C29.2796 8.17975 29.3385 8.19421 29.3971 8.20792C29.833 8.31008 30.2331 8.54068 30.62 8.78172C30.7087 8.8371 30.798 8.89322 30.8858 8.94839Z" fill="#D65E40"/>
</svg>
