<svg width="23" height="19" viewBox="0 0 23 19" fill="none" xmlns="http://www.w3.org/2000/svg">
<path d="M12.3584 5.607C12.7153 5.79023 13.2962 5.66925 13.6206 5.63953C13.6265 5.63898 13.6325 5.63843 13.6384 5.63789C13.6642 5.63512 13.6894 5.63351 13.7147 5.63273C13.7457 5.62997 13.7771 5.63047 13.8126 5.6321C13.9461 5.64441 14.0953 5.63251 14.5993 5.66683C14.73 5.7247 14.8661 5.79047 15.0074 5.86379C15.5953 6.16756 16.2536 6.62578 16.9356 7.17453C17.1679 7.12888 17.6985 8.38856 18.1565 10.1242C18.1634 10.1611 18.1706 10.1987 18.1781 10.2374C18.1981 10.3398 18.2202 10.4483 18.2451 10.5607C18.2729 10.7434 18.2555 10.9737 18.2796 11.2028C18.3178 11.5368 18.2857 11.8536 18.2478 12.113C18.0876 12.548 17.8313 13.0055 17.5128 13.4387C17.136 14.0631 16.064 14.5891 14.8419 14.8041C14.2791 14.9092 13.6849 14.9653 13.0782 14.9836C12.5193 15.0003 11.9499 14.9875 11.3763 14.9536C11.043 14.8914 10.7268 14.8154 10.4344 14.7422C10.0218 14.6393 9.65539 14.5422 9.34848 14.4947C8.61016 14.3808 7.75061 14.382 7.10535 14.3789C6.99994 14.3785 6.90082 14.378 6.80843 14.3769C6.50797 14.3263 6.20631 14.2741 5.90499 14.2216C5.8161 14.1983 5.75299 14.1688 5.70684 14.1383C5.6924 14.1538 5.67757 14.1698 5.66143 14.1857C5.45709 14.3706 5.29089 14.3281 5.05266 13.9105C4.94912 13.7232 4.83417 13.4479 4.70688 13.0584C4.62539 12.8066 4.49573 12.6833 4.38831 12.5817C4.35683 12.5515 4.32745 12.5228 4.30236 12.4925C4.21635 12.3883 4.25941 12.2493 4.31185 12.0839C4.3796 11.8687 4.46479 11.6111 4.29562 11.2917C4.1231 10.9661 4.01564 10.6753 3.9395 10.4063C3.83424 10.0661 3.98282 9.82497 4.10674 9.6641C4.16084 9.59292 4.21177 9.53217 4.24239 9.47127C4.33994 9.27418 4.29489 9.00233 4.24038 8.77803C4.21863 8.69331 4.25502 8.58649 4.32183 8.50409L4.08668 8.85434C4.22435 8.73757 4.4011 8.63759 4.56414 8.57177C4.68219 8.52389 4.80146 8.41871 4.95049 8.30114C5.10419 8.17975 5.29112 8.04482 5.52588 7.95635C6.11989 7.73782 6.45158 7.67236 6.7156 7.61355C6.79119 7.59775 6.86184 7.58378 6.93278 7.57127C7.1569 7.53147 7.43216 7.47618 7.71609 7.43518C7.84179 7.41689 7.96891 7.4012 8.09322 7.38961L7.90904 7.42424C8.10706 7.4242 8.34785 7.4293 8.56517 7.44099C9.46535 7.28282 10.4458 7.03074 11.3181 6.7386C11.7688 6.5893 12.1478 6.25622 12.3574 5.81693C12.5697 5.37647 12.5995 4.86917 12.46 4.39543C12.3175 3.92223 12.0169 3.51526 11.6279 3.24576C11.2403 2.97611 10.7975 2.8665 10.3956 2.92303C9.56642 3.04342 8.8299 3.09336 7.98102 3.12139C7.77397 3.13023 7.54616 3.14109 7.2902 3.16518C7.25705 3.17366 7.15497 3.18548 7.12264 3.19669C6.11712 3.37509 5.10553 3.69292 4.15383 4.19584C3.32817 4.6316 2.54477 5.19708 1.86595 5.88024C1.79595 5.95061 1.72747 6.02192 1.65973 6.09463C1.53858 6.18626 1.41937 6.28153 1.30354 6.37951C1.23304 6.47814 1.01905 6.75114 0.977547 6.86506C0.514382 7.60003 0.296798 8.32421 0.205189 8.86235C0.114942 9.41023 0.191626 9.81006 0.269212 10.1407C0.323832 10.3692 0.381834 10.5668 0.409981 10.7733C0.42487 10.8814 0.444086 11.0286 0.476618 11.2079C0.476876 11.2101 0.477134 11.2123 0.477396 11.2145C0.524483 11.5485 0.575641 12.4213 0.879767 13.3018C1.01551 13.6897 1.23604 14.1537 1.50219 14.6056C1.8737 15.2558 2.38682 15.8572 2.62453 16.2031C3.01195 16.8323 3.88123 17.3839 4.63394 17.5449C4.97113 17.6271 5.27205 17.657 5.53511 17.6766C5.73012 17.6875 5.89431 17.713 6.00751 17.7691C6.25964 17.895 6.49003 17.8792 6.83181 17.8549C7.06948 17.8381 7.36083 17.8176 7.75378 17.8354C8.20782 17.8559 8.53537 17.8157 8.81355 17.7805C9.20531 17.7306 9.49903 17.6915 9.92567 17.8343C10.401 17.9931 10.9076 18.0991 11.3152 18.0724C11.4984 18.0604 11.7127 18.0705 11.9319 18.0785C12.2257 18.0893 12.5352 18.0959 12.8184 18.0459C13.0513 18.0047 13.2441 17.9027 13.4102 17.811C13.4629 17.7824 13.5131 17.7548 13.5617 17.7302C13.7476 17.7225 13.934 17.7129 14.1219 17.7014C14.1533 17.7145 14.1865 17.7291 14.2212 17.7439C14.3946 17.8185 14.6152 17.9075 14.8827 17.93C15.3077 17.965 15.6718 17.8525 16.051 17.7153C16.3467 17.6077 16.6521 17.4858 17.02 17.3879C17.2741 17.32 17.5722 17.2549 17.8714 17.1672C18.3169 17.0393 18.7714 16.8457 19.0327 16.6214C19.1319 16.5373 19.1867 16.4225 19.2356 16.3092C19.2357 16.3086 19.2359 16.308 19.236 16.3074C19.2394 16.2997 19.2428 16.2921 19.2461 16.2844C19.5064 16.1041 19.7581 15.8977 19.9922 15.665C20.3108 15.3556 20.616 15.0242 20.9031 14.6629C20.9521 14.6186 21.0014 14.5724 21.0496 14.5261C21.286 14.2999 21.5056 14.0578 21.6944 13.9142C21.8987 13.7604 22.2278 13.252 22.4838 12.6103C22.6531 12.1925 22.7858 11.7181 22.8767 11.3055C22.9307 11.0643 22.8727 10.8228 22.7981 10.585C22.7281 10.3618 22.6447 10.1415 22.617 9.89067C22.6031 9.76465 22.6008 9.6256 22.5915 9.47497C22.5915 9.47377 22.5914 9.47258 22.5913 9.47138C22.5991 9.40367 22.6074 9.32979 22.6059 9.25355C22.6042 9.18165 22.5368 9.03521 22.4502 8.82666C22.3967 8.69806 22.3359 8.54622 22.2775 8.37907C22.2244 7.91673 22.1622 7.41413 22.0489 6.86721C22.0707 6.74064 22.1095 6.62135 22.1717 6.51416C22.2164 6.43727 22.275 6.36396 22.3339 6.28726C22.4139 6.18238 22.4953 6.07178 22.5417 5.93427C22.578 5.82675 22.5663 5.71482 22.5126 5.65578C22.4877 5.62841 22.4543 5.61289 22.4241 5.59893C22.3895 5.58291 22.3587 5.56888 22.348 5.54065C22.3403 5.5202 22.3489 5.49207 22.3589 5.45726C22.3749 5.4017 22.3948 5.32878 22.3589 5.24342C22.2256 4.92653 22.0215 4.56057 21.77 4.20444C21.4924 3.80764 21.1532 3.4313 20.8684 3.13847C20.8187 3.08687 20.7628 3.034 20.7013 2.98064C20.5064 2.81563 20.22 2.6432 19.9234 2.47556C19.6782 2.33669 19.4262 2.20125 19.2174 2.07106C19.0129 1.94343 18.8279 1.76605 18.6383 1.59569C18.4115 1.39148 18.1761 1.19737 17.9208 1.12289C17.8693 1.10792 17.7757 1.14156 17.6598 1.1855C17.5777 1.21665 17.4841 1.2529 17.3858 1.2809C17.0988 1.13199 16.7968 0.995687 16.4802 0.876781C16.4729 0.862936 16.4652 0.848793 16.4576 0.83444C16.4575 0.834142 16.4574 0.833843 16.4573 0.833545C16.2895 0.512845 15.9949 0.0550561 15.3672 0.1085C15.2097 0.123208 15.0986 0.194735 15.0013 0.260052C14.9054 0.324375 14.822 0.383107 14.715 0.381936C14.5934 0.380644 14.4595 0.312681 14.3067 0.243523C14.2342 0.210598 14.1575 0.177378 14.0772 0.150985C13.9456 0.101213 13.8037 0.074961 13.6612 0.122758C13.6464 0.127694 13.6306 0.133149 13.6141 0.138631C13.4586 0.190402 13.2299 0.27142 13.0143 0.443788C12.3641 0.503578 11.7335 0.623097 11.1278 0.786084C10.1176 1.05824 9.17687 1.44923 8.29809 1.90369C7.8697 2.12554 7.54217 2.51884 7.40395 2.98565C7.26485 3.45354 7.322 3.95126 7.53892 4.38432C7.75633 4.81783 8.11426 5.16072 8.51966 5.37353C8.92625 5.58529 9.34519 5.64966 9.70983 5.56654C10.305 5.42917 10.8948 5.33785 11.4646 5.29333C11.4959 5.29675 11.527 5.29999 11.5577 5.30282C11.7866 5.32391 12.0074 5.42387 12.216 5.53199C12.264 5.55682 12.3113 5.58217 12.3584 5.607Z" fill="#4C6EB6"/>
</svg>
