<svg width="67" height="52" viewBox="0 0 67 52" fill="none" xmlns="http://www.w3.org/2000/svg">
<path d="M44.7513 13.4157C44.9377 13.7364 45.2118 13.9609 45.4525 14.1186C46.3126 14.6012 47.2914 14.9937 47.9277 15.27C47.947 15.2786 47.9663 15.2873 47.9855 15.2959C48.234 15.4036 48.4584 15.5283 48.7126 15.6747C49.3055 16.0271 50.1734 16.5013 51.7443 17.2894C51.9757 17.4971 52.1907 17.6998 52.3791 17.8871C52.0921 17.6117 51.9093 17.3644 51.7945 17.186C51.5097 16.7181 51.5736 16.6947 51.6119 16.8566C51.6617 17.0213 51.7324 17.3641 51.7837 17.7719C51.8904 18.5996 51.9363 19.6752 51.9335 20.8052C51.9271 23.0826 51.7522 25.5943 51.5212 28.1617C51.5205 29.185 51.1562 30.5057 50.2865 32.135C50.2412 32.1974 50.1944 32.2611 50.1464 32.3258C49.2397 33.5654 47.6915 35.3313 46.8159 36.9382C46.7965 36.9739 46.7772 37.0096 46.758 37.0452C46.7377 37.5638 46.487 38.0824 46.0684 38.5586C43.9517 40.0912 39.4663 41.0416 35.3423 41.6539C33.5543 41.9162 31.8504 42.1739 30.1326 42.3888C28.2494 42.6261 26.3709 42.8173 24.5031 42.9399C22.7839 43.0525 21.0709 43.1148 19.3828 43.1083C18.398 42.9913 17.4752 42.8295 16.6401 42.6616C15.4754 42.4282 14.4868 42.1819 13.7044 42.0422C13.7125 42.0424 13.7205 42.0427 13.7284 42.043C14.2676 42.0807 14.2722 42.1536 14.136 42.0667C13.9933 41.9901 13.7059 41.813 13.3955 41.5905C12.765 41.1417 12.0319 40.5307 11.4179 39.9752C11.2164 39.7931 11.0251 39.6149 10.8491 39.4456C10.8463 39.4418 10.8434 39.438 10.8405 39.4342C10.9575 39.5033 10.705 38.8241 10.7278 37.8572C10.6703 37.7978 10.6112 37.7369 10.5512 37.6722C9.80587 36.8505 9.80494 35.504 10.179 33.3854C10.3394 32.4908 10.5707 31.4446 10.875 30.2446C10.8858 30.2024 10.8967 30.1599 10.9077 30.117C11.125 29.2782 11.0151 28.7587 10.9242 28.3301C10.8978 28.2042 10.8739 28.0852 10.8616 27.969C10.8203 27.5696 11.122 27.2645 11.4813 26.9091C11.9481 26.4465 12.5118 25.9016 12.5774 24.898C12.74 22.531 13.4248 21.3143 14.1009 20.5228C14.287 20.3808 14.4873 20.2894 14.6731 20.2145C14.8813 20.1304 15.0709 20.0674 15.2171 19.9744C15.6764 19.6824 15.9987 18.9388 16.3362 18.2023C16.5798 17.6192 17.7485 17.0367 18.7885 16.7674C19.1788 16.6625 19.63 16.389 20.2007 16.0643C20.7907 15.7275 21.506 15.3404 22.4011 15.0071C23.0916 14.7487 23.7215 14.5 24.3205 14.2285C25.2195 13.8943 25.8591 13.707 26.4114 13.5501C26.6384 13.4865 26.852 13.4287 27.0682 13.3742C27.7506 13.2015 28.6066 12.966 29.5141 12.7499C30.5978 12.4903 31.7558 12.2561 32.6823 12.1442C33.1297 11.978 33.5854 11.811 34.0494 11.6416L32.9733 11.8475C35.2426 11.4817 37.2026 10.9353 39.0586 10.4277L38.5897 10.4981C38.6654 10.4805 38.7426 10.4635 38.8182 10.4475C39.6736 10.2676 40.3061 9.7201 40.8655 8.8503C41.4004 7.9644 42.1719 6.9405 42.8636 5.81815C43.5518 4.70962 43.5728 3.1657 42.4401 1.89932C41.3407 0.640964 39.5592 -0.0273524 37.909 0.0190617C37.759 0.022706 37.6074 0.0280947 37.4589 0.0347121C37.3808 0.0508571 37.1423 0.0712034 37.0658 0.0937589C35.1915 0.298721 33.4024 0.484381 31.8349 0.50506C31.6493 0.541927 31.0964 0.610896 30.9204 0.680038C30.3314 0.804845 29.7332 0.93588 29.1277 1.07676C25.8836 1.83827 22.3806 2.85509 18.9553 4.8675C18.8889 4.90679 18.8225 4.94642 18.7561 4.98641C17.3137 5.85052 15.1221 6.95584 13.0168 8.4014C12.7911 8.55586 12.5643 8.71571 12.3375 8.88016C10.2766 9.8857 8.09243 11.4719 6.77525 13.0939C5.68097 14.414 5.21406 15.7249 4.93058 16.8235C4.92687 16.8379 4.92319 16.8522 4.91953 16.8666C4.84767 17.316 4.77947 17.7184 4.61495 18.0903C4.5249 18.2938 4.39259 18.5692 4.23208 18.9043C3.58196 20.2672 2.42726 22.6605 1.89987 25.2017C1.75549 25.8989 1.64634 26.6932 1.56835 27.5175C1.51598 28.0361 1.47975 28.5602 1.45491 29.0728C1.35736 31.0051 1.44456 32.7891 1.23555 33.6778C0.860377 35.237 0.927027 37.1569 1.26855 38.9707C1.57653 40.6983 2.21047 42.3412 2.53897 43.4574C2.74699 44.2032 3.13265 44.8848 3.73757 45.5465C4.00468 45.8219 4.32251 46.0938 4.7045 46.409C5.31409 46.9068 6.05011 47.5117 7.15139 48.412C8.44317 49.447 9.6889 50.0846 11.1554 50.46C11.6786 50.5891 12.2376 50.6802 12.8532 50.6993C13.7037 50.6569 14.4628 50.6741 15.4567 50.9428C16.9338 51.3412 18.4766 51.5526 19.6734 51.4219C20.2196 51.3626 20.8405 51.3571 21.4855 51.3451C22.3392 51.3295 23.2333 51.3019 24.0376 51.1331C24.7008 50.994 25.2349 50.702 25.7022 50.4424C25.8484 50.3614 25.9896 50.2837 26.1254 50.2144C26.6506 50.1794 27.1759 50.1435 27.7043 50.1079C27.7926 50.142 27.8854 50.1801 27.982 50.2193C28.4708 50.4156 29.0722 50.6546 29.7958 50.7336C30.9439 50.8582 31.9172 50.6189 32.9311 50.3644C33.7221 50.1662 34.5416 49.9571 35.4863 49.9077C35.6843 49.8978 35.914 49.8929 36.1213 49.896C36.6169 49.897 37.1354 49.9165 37.6557 49.9318C38.7963 49.9661 39.9427 49.9756 40.7217 49.7677C41.0085 49.6909 41.2481 49.4931 41.4713 49.2973C41.4722 49.2961 41.4732 49.295 41.4741 49.2939C41.4894 49.2805 41.5048 49.2675 41.52 49.2542C43.4639 49.0731 45.4637 48.8328 47.6114 48.2752C47.8092 48.2529 48.0009 48.2297 48.2045 48.1989C49.1769 48.0595 50.1704 47.8181 50.9135 47.7275C51.6929 47.6434 53.6077 46.8021 55.3671 45.1101C55.742 44.7525 56.1026 44.3665 56.4372 43.9689C56.7997 43.605 57.2018 43.2236 57.5914 42.8931C57.9311 42.6051 58.0651 42.1608 58.2096 41.6909C58.3444 41.2524 58.4885 40.7927 58.8254 40.4051C58.9941 40.2109 59.2151 40.0246 59.4532 39.8175C59.6622 39.6359 59.8851 39.4376 60.0943 39.2058C60.2879 38.9901 60.5785 38.4061 60.9297 37.6059C61.1465 37.1112 61.3852 36.5335 61.6311 35.9099C62.5274 34.3928 63.3146 32.6258 63.7797 30.6841C63.8805 30.511 63.9856 30.347 64.0966 30.1944C64.2185 30.0759 64.3525 29.9703 64.4997 29.8812C64.6943 29.7623 64.9182 29.6733 65.1473 29.5795C65.4592 29.4519 65.7821 29.3143 66.0544 29.1027C66.2676 28.9353 66.3753 28.713 66.3215 28.5475C66.2965 28.4698 66.2375 28.4042 66.1841 28.3447C66.123 28.2764 66.0687 28.2155 66.0795 28.1519C66.0874 28.107 66.1433 28.067 66.2111 28.0172C66.3193 27.9377 66.4593 27.8335 66.4893 27.6468C66.6004 26.9579 66.6621 26.1567 66.7105 25.3606C66.7649 24.4756 66.8026 23.5952 66.8918 22.8862C66.9926 22.0914 66.8768 20.9238 66.7039 19.7037C66.5841 18.8528 66.4359 17.9813 66.3318 17.1889C66.2301 16.4144 66.2476 15.5611 66.1902 14.6367C66.1221 13.533 65.9326 12.2882 65.2905 11.156C65.1623 10.9322 64.845 10.7027 64.4247 10.4286C64.1301 10.2416 63.7708 10.0083 63.3819 9.74873C63.017 9.18031 62.5506 8.57596 61.9511 7.99837C61.4877 7.55506 61.0227 7.14932 60.5548 6.76812C60.5473 6.72631 60.5393 6.68357 60.5314 6.64019C60.5314 6.63934 60.5314 6.6385 60.5314 6.63766C60.3587 5.66339 60.0319 4.29155 58.56 3.9059C58.1869 3.80904 57.8647 3.88751 57.5788 3.96121C57.2957 4.03234 57.0478 4.10054 56.8127 3.99759C56.5497 3.88316 56.3355 3.59157 56.0999 3.2785C55.7689 2.8386 55.3872 2.35078 54.7883 2.25302C54.7476 2.24643 54.7036 2.23963 54.658 2.23204C54.2268 2.16016 53.589 2.062 52.8598 2.18219C52.4564 2.00374 52.0555 1.83375 51.6498 1.66788C50.0779 0.994859 48.5324 0.594511 47.0446 0.34638C43.7288 -0.191025 40.6755 -0.0276687 37.7717 0.360754C36.3588 0.554858 35.0723 1.28208 34.239 2.35427C33.4024 3.42874 33.0773 4.7428 33.2574 6.02162C33.4393 7.30215 34.1019 8.46529 35.0294 9.33813C35.9605 10.2095 37.0739 10.719 38.1622 10.8214C39.9402 10.9836 41.6375 11.2906 43.0885 11.7464C43.1623 11.7859 43.2352 11.8248 43.3067 11.8625C43.8407 12.1429 44.2463 12.617 44.5528 13.0908C44.6239 13.1998 44.6896 13.3089 44.7513 13.4157Z" fill="#D65E40"/>
</svg>
