<svg width="43" height="34" viewBox="0 0 43 34" fill="none" xmlns="http://www.w3.org/2000/svg">
<path d="M30.8747 9.28103C30.9412 9.32407 31.0143 9.36238 31.0929 9.3967C31.2012 9.67469 31.1175 9.49194 31.3654 9.5577C31.3692 9.55882 31.3732 9.56001 31.3771 9.56125C31.4302 9.57598 31.4793 9.60943 31.5448 9.66193C31.7069 9.80912 31.936 9.94401 32.8277 10.8511C32.8335 10.8606 32.8394 10.8701 32.8452 10.8796C32.9672 11.0841 33.0574 11.2631 33.1276 11.4228C33.2983 11.8299 33.3413 12.042 33.342 12.3842C33.339 12.7222 33.2225 13.2571 32.9109 13.943C32.2904 15.3871 31.0304 16.8813 29.5391 19.5853C29.3721 19.946 29.1905 20.3029 28.9942 20.6556C28.9637 20.6963 28.9325 20.7375 28.9008 20.779C28.2936 21.5861 27.4212 22.5005 26.9364 23.1706C26.3239 24.0271 25.8642 24.6215 25.4801 25.1127C24.7475 25.809 23.9533 26.4697 23.1111 27.092C21.9744 28.0935 19.4477 28.3954 17.0162 27.9928C15.9327 27.8255 14.8343 27.547 13.7616 27.1821C12.7723 26.8451 11.7982 26.4377 10.8731 25.9728C10.3647 25.6379 9.91 25.2866 9.52181 24.9561C9.4226 24.8724 9.33067 24.7918 9.24585 24.7148C8.97024 24.4282 8.79922 24.1682 8.64128 23.9605C8.19054 23.3917 7.61303 22.4994 7.25828 21.5673C7.20063 21.4221 7.14718 21.2752 7.10157 21.1413C6.97348 20.3531 6.90969 19.4999 6.88501 18.6192C6.84748 18.5635 6.80866 18.5069 6.76904 18.4487C6.2763 17.7287 6.21949 16.7586 6.20343 15.2013C6.20004 14.857 6.19876 14.4826 6.19554 14.0697C6.1929 13.8462 6.20818 13.6276 6.24951 13.3951C6.30569 13.0942 6.22481 12.8767 6.16877 12.674C6.15267 12.6151 6.13939 12.5584 6.13426 12.5038C6.11769 12.3152 6.31033 12.2227 6.53824 12.1414C6.84036 12.0299 7.18187 11.9473 7.39388 11.4942C8.17762 10.0066 9.27346 9.94079 9.90727 9.93639C10.1062 9.93312 10.2864 9.93222 10.4546 9.89793C10.9968 9.78659 11.6427 9.3229 12.1278 8.88856C12.5083 8.54309 13.4879 8.29837 14.2997 8.16739C14.515 8.13241 14.7675 8.04101 15.0547 7.91899L14.439 8.11623C14.5546 8.09549 14.6769 8.07187 14.8054 8.04759C15.251 7.96335 15.7722 7.87152 16.3473 7.8643C17.8013 7.84892 18.5842 7.85969 19.2123 7.86286C19.3922 7.86423 19.5592 7.86549 19.7266 7.86799C20.2555 7.87572 20.9126 7.85953 21.5841 7.84571C22.3863 7.82914 23.2138 7.81468 23.8648 7.83929C24.743 7.68245 25.5624 7.54626 26.6945 7.26624L26.3795 7.31562C26.9045 7.19819 27.3565 7.13607 27.895 7.13213C28.4655 7.12582 29.1365 6.89693 29.787 6.4452C30.4332 5.99186 30.9872 5.3432 31.2463 4.56067C31.5026 3.77986 31.4402 2.91408 30.9691 2.15048C30.5017 1.39017 29.6387 0.80429 28.5905 0.626722C27.6319 0.46025 26.5763 0.404424 25.6027 0.461223C25.5498 0.472286 25.3883 0.487431 25.3364 0.502967C24.7075 0.557246 23.7714 0.597821 22.8944 0.639061C20.873 0.732022 18.7677 0.860454 16.6521 1.1671C15.4983 1.33397 14.3357 1.53801 13.1642 1.79651C13.0109 1.84263 12.5594 1.95619 12.42 2.03493C12.1601 2.15814 11.8842 2.28587 11.604 2.41517C11.475 2.47476 11.3391 2.53744 11.2081 2.5979C10.0284 2.88043 8.76969 3.22979 7.88756 3.59028C7.15894 3.88556 6.68217 4.26485 6.27908 4.6009C6.00135 4.83274 5.75781 5.0447 5.47402 5.21336C5.32217 5.30374 5.11105 5.42479 4.855 5.58231C3.84894 6.2026 1.86357 7.55251 0.867077 9.93047C0.432438 10.9471 0.215441 12.3079 0.31704 13.4905C0.332128 13.6884 0.353762 13.8843 0.380955 14.0768C0.583174 15.0212 0.765256 15.8696 0.720265 16.3349C0.628623 17.2551 0.785651 18.3242 0.96859 19.2781C1.14062 20.1879 1.33909 20.9916 1.29177 21.4917C1.23579 22.0892 1.40317 22.5732 1.70675 23.2866C1.92213 23.7805 2.19548 24.3893 2.62293 25.2349C3.12381 26.2119 3.69883 26.8312 4.20909 27.296C4.94362 27.9486 5.53478 28.3518 6.32189 29.0946C6.37806 29.1464 6.43543 29.1976 6.49393 29.248C7.2083 29.9024 8.01928 30.4443 8.72847 30.709C9.07023 30.8366 9.44955 31.0159 9.84871 31.1939C10.3728 31.4281 10.9342 31.6601 11.4787 31.7773C11.9265 31.8737 12.3348 31.8427 12.6911 31.8094C12.8024 31.799 12.9102 31.7891 13.0114 31.7819C13.3514 31.8905 13.6952 31.9946 14.0406 32.0941C14.0899 32.1343 14.1419 32.1778 14.1961 32.2228C14.4682 32.4479 14.8124 32.7224 15.2826 32.9184C16.0281 33.2279 16.7477 33.2622 17.5026 33.2608C18.0922 33.2587 18.7059 33.2364 19.4159 33.2825C19.9039 33.3137 20.4642 33.3714 21.0423 33.3916C21.8967 33.4259 22.7911 33.3583 23.3871 33.1339C23.6074 33.0518 23.7781 32.8955 23.9356 32.7385C23.9362 32.7377 23.9369 32.7368 23.9375 32.736C23.9483 32.7253 23.9591 32.7147 23.9698 32.704C24.6793 32.506 25.3945 32.2257 26.0825 31.8426C26.661 31.5317 27.2355 31.2047 27.8042 30.859C27.9098 30.8159 28.0161 30.7713 28.1212 30.7262C28.6352 30.5065 29.1319 30.2742 29.513 30.1866C29.9261 30.0932 30.7482 29.5635 31.5842 28.9306C32.1326 28.5179 32.6865 28.0625 33.1589 27.6975C33.4355 27.4842 33.5762 27.1686 33.7118 26.8441C33.8387 26.5407 33.9616 26.2295 34.1971 25.9694C34.3153 25.8387 34.4646 25.7143 34.6231 25.5781C34.7625 25.4585 34.9093 25.3294 35.0461 25.1815C35.173 25.0439 35.3657 24.6716 35.5901 24.1862C35.7101 23.9269 35.8392 23.6352 35.974 23.329C35.9822 23.3031 35.9914 23.2763 36.0016 23.2486C36.355 22.7839 36.8892 22.1742 37.4584 21.5136C37.6411 21.4217 37.8313 21.3644 38.0309 21.35C38.1742 21.3394 38.3252 21.3538 38.4813 21.3658C38.6935 21.3827 38.9152 21.3965 39.1336 21.35C39.3046 21.3133 39.4353 21.2121 39.4592 21.0965C39.47 21.0429 39.458 20.987 39.4472 20.9363C39.4348 20.8782 39.4239 20.8264 39.4502 20.7913C39.4693 20.766 39.5138 20.757 39.5681 20.7453C39.6548 20.7266 39.768 20.7007 39.8454 20.5941C40.1342 20.1962 40.4374 19.6951 40.7273 19.1635C41.0502 18.5739 41.3535 17.9432 41.6172 17.4221C41.9137 16.8419 42.177 15.8819 42.3061 14.8337C42.3989 14.1053 42.4223 13.3406 42.4177 12.6844C42.4156 12.0404 42.4499 11.3618 42.4189 10.6944C42.3853 9.90142 42.253 9.12877 41.9541 8.57993C41.8938 8.46859 41.7197 8.35519 41.5076 8.24353C41.3563 8.16168 41.1822 8.07146 41.0075 7.96435C40.7295 7.33199 40.4089 6.76216 40.0496 6.22158C40.0335 6.1975 40.0173 6.17337 40.0009 6.14921C40.0044 6.12346 40.0078 6.09698 40.0113 6.07021C40.0115 6.06971 40.0117 6.06922 40.0118 6.06873C40.0924 5.4711 40.1667 4.58285 39.2292 3.95522C38.9912 3.79871 38.7597 3.7678 38.5529 3.74347C38.3493 3.71964 38.1684 3.7018 38.0083 3.57384C37.8259 3.42815 37.6863 3.17555 37.5082 2.89625C37.2617 2.50661 36.9258 2.05714 36.3914 1.86058C36.3551 1.84729 36.3159 1.83332 36.2752 1.8187C35.8917 1.67973 35.2927 1.49585 34.642 1.52077C33.6959 1.15704 32.6734 0.968635 31.7129 0.951638C31.2314 0.952931 30.7498 0.96768 30.2685 0.996045C28.3465 1.11159 26.4283 1.43097 24.5313 2.0317C23.6074 2.32402 22.7932 2.98027 22.3894 3.79458C21.9785 4.61179 22.0265 5.47702 22.3926 6.19435C22.7585 6.91569 23.3614 7.47976 23.9988 7.88195C24.6414 8.28041 25.2967 8.47113 25.9431 8.42004C26.997 8.33404 28.112 8.3623 29.222 8.47269C29.2803 8.48833 29.3389 8.50368 29.3973 8.51827C29.8317 8.62697 30.2282 8.86355 30.6115 9.11038C30.6992 9.16708 30.7878 9.22454 30.8747 9.28103Z" fill="#4C6EB6"/>
</svg>
