<svg width="377" height="314" viewBox="0 0 377 314" fill="none" xmlns="http://www.w3.org/2000/svg">
<path d="M218.438 0.616877C213.818 1.18503 207.726 1.66156 199.818 6.32079C191.073 12.2158 188.34 20.4311 186.313 26.2924C185.099 30.0101 184.531 33.6079 184.248 36.3598C184.223 36.5954 184.199 36.8292 184.177 37.0612C183.898 40.0683 183.776 42.677 183.631 45.6203C183.6 46.2723 183.569 46.9269 183.536 47.6175C183.519 48.0358 183.479 48.4482 183.428 48.7693C183.404 48.9258 183.375 49.0647 183.367 49.1025C183.365 49.1175 183.365 49.1124 183.403 49.0079C183.424 48.9532 183.451 48.8769 183.521 48.7162C183.614 48.5278 183.627 48.3939 184.144 47.565C184.411 47.2848 184.399 46.7789 186.516 45.3671C187.497 44.7272 189.837 43.8555 192.148 44.1903C194.537 44.5118 195.911 45.5271 196.656 46.1403C197.365 46.7478 197.673 47.1776 197.857 47.4276C198.053 47.7065 198.107 47.8155 198.15 47.8959C198.217 48.031 198.159 47.9388 198.085 47.7662C197.751 47.0162 197.204 45.2879 196.659 43.402C195.393 39.4358 194.683 34.8109 191.013 27.3124C190.38 26.1431 189.677 24.9372 188.854 23.6827C186.532 19.9038 182.833 15.6097 178.004 13.0248C175.425 11.6282 173.355 10.8024 171.299 9.94031C167.607 8.42442 164.131 7.05068 160.633 5.5948C148.028 0.690051 137.912 1.94751 128.292 0.744184C118.303 0.211712 111.03 -1.07202 97.4632 2.47084C90.5961 5.14604 85.5617 11.208 82.9332 13.9666C76.6775 20.706 74.0575 26.7588 70.7851 32.7894C65.1523 42.9225 64.3457 56.4401 65.8194 65.8624C65.8145 65.7946 65.8086 65.7021 65.8052 65.5699C65.8032 65.4591 65.7957 65.2219 65.8242 64.8334C65.8873 64.5269 65.7675 63.7702 66.6508 61.8499C67.2126 60.4055 69.9641 57.3815 73.5362 57.2571C75.1828 57.1497 76.4579 57.5274 77.3141 57.8845C77.4183 57.9281 77.5404 57.983 77.6109 58.0161C77.6746 58.0458 77.7362 58.0756 77.7959 58.1053C77.9153 58.1648 78.0269 58.2239 78.1317 58.2823C78.3412 58.399 78.5236 58.5123 78.6855 58.62C79.9952 59.5559 80.0207 59.7629 80.2971 60.0387C80.52 60.3017 80.5661 60.3723 80.6455 60.4796C80.7758 60.662 80.7983 60.7052 80.8159 60.7335C80.85 60.799 80.6866 60.5262 80.5476 60.2784C80.2466 59.7461 79.8808 59.0806 79.4698 58.3782C79.0529 57.6684 78.5955 56.9103 77.9698 56.0249C77.2394 55.1069 76.8467 54.1766 74.3901 52.3971C69.8714 49.7781 67.7098 50.0504 65.2834 49.6998C62.9514 49.5084 60.8378 49.5236 58.7636 49.6071C54.6387 49.7872 50.7167 50.2715 46.8272 50.9253C41.0117 51.9304 34.1314 52.7463 27.5125 54.7907C26.212 55.1751 24.8795 55.649 23.5589 56.2357C22.589 56.6509 21.6106 57.1337 20.6619 57.6729C17.3837 59.528 14.6936 61.9409 12.4317 64.178C6.78491 70.8699 6.44067 75.2044 4.74603 80.1368C3.38062 84.9213 2.38858 89.5233 1.59369 93.817C0.72879 98.619 0.695801 102.554 0.621002 105.845C0.523407 117.996 0.832886 126.761 1.00754 134.204C1.06259 137.009 1.50677 139.582 2.14981 141.902C4.3512 150.492 9.87491 157.378 14.2466 162.5C15.6247 164.263 17.5984 165.789 19.5442 166.687C20.5045 167.144 21.4575 167.469 22.1866 167.694C22.5435 167.804 22.8548 167.897 22.9413 167.925C22.98 167.935 22.9604 167.933 22.776 167.845C22.5941 167.741 22.2094 167.611 21.4543 166.889C21.1649 166.587 20.6349 166.012 20.2923 164.867C19.938 163.727 20.1281 162.403 20.3866 161.773C20.645 161.103 20.8456 160.889 20.9307 160.774C21.0162 160.672 21.0115 160.694 20.9559 160.75C20.7018 161.024 19.8454 161.691 18.9573 162.351C17.1419 163.814 14.8093 165.069 12.3839 168.813C8.36725 175.833 6.9783 182.566 4.55499 187.95C-0.0140686 198.94 2.0152 208.116 1.52634 216.941C1.72375 226.755 7.21088 232.765 10.0952 238.086C13.7593 244.176 18.3323 248.088 23.1908 251.796C29.0457 256.162 36.0392 259.646 43.6705 260.847C46.9443 261.428 50.9673 261.398 52.9887 261.515C57.5253 261.938 62.5992 263.144 67.9392 263.665C71.6299 264.054 75.4459 264.161 79.3799 263.64C83.1791 263.238 87.6609 261.499 89.515 261.116C90.3049 260.974 91.03 260.762 91.6914 260.521C93.6828 259.781 95.1331 258.844 96.4192 257.999C96.56 257.901 96.597 257.895 96.347 258.028C96.1038 258.118 95.4333 258.589 93.8243 258.425C92.1586 258.222 91.0626 257.088 90.7768 256.666C90.4301 256.184 90.3854 255.997 90.3399 255.898C90.2771 255.72 90.3307 255.865 90.3596 256.037C90.394 256.218 90.4305 256.464 90.4622 256.733C91.6859 266.545 92.5934 276.212 94.6093 286.342C94.9815 288.172 95.571 290.005 96.346 291.717C98.3333 296.253 101.212 299.487 103.211 302.265C106.854 306.977 111.464 309.214 115.878 310.661C117.146 311.059 118.424 311.374 119.733 311.602C127.123 312.945 133.901 313.411 139.739 313.747C141.234 313.827 142.669 313.871 144.048 313.889C151.811 313.745 158.415 314.28 168.467 311.145C175.452 308.404 181.249 302.635 185.015 299.012C189.345 294.862 191.669 290.886 193.923 287.249C194.637 286.061 195.303 284.906 195.925 283.812C196.788 282.3 197.248 280.971 197.563 280.195C197.664 279.958 197.755 279.775 197.741 279.812C197.669 279.845 197.772 280.162 196.43 281.18C196.16 281.319 195.66 281.831 193.926 281.902C193.063 281.919 192.045 281.635 191.351 281.223C190.658 280.822 190.277 280.412 190.038 280.128C189.6 279.575 189.588 279.427 189.565 279.404C189.555 279.386 189.594 279.495 189.638 279.653C189.827 280.323 190.064 281.529 190.344 282.778C191.005 285.298 191.391 288.394 194.511 292.051C200.206 297.74 206.42 297.971 209.733 299.299C211.758 300.021 213.836 300.645 215.869 301.172C216.724 301.321 217.575 301.452 218.42 301.574C219.988 301.802 221.529 302.022 223.027 302.299C231.63 303.708 240.552 304.366 253.572 300.56C256.789 299.385 260.278 297.93 263.836 295.972C267.046 294.216 270.19 292.106 273.339 289.911C277.275 287.176 281.558 283.996 285.808 280.126C287.086 278.966 288.322 277.696 289.48 276.369C293.557 271.573 295.288 268.321 296.735 265.817C297.248 264.905 297.678 264.071 298.07 263.275C298.519 262.361 298.918 261.498 299.316 260.625C300.633 257.74 302.179 254.805 303.782 251.364C303.871 251.159 303.951 250.957 304.025 250.754C305.972 244.153 306.028 238.604 305.129 230.255C305.027 229.478 304.918 228.713 304.793 227.936C304.768 227.788 304.748 227.668 304.733 227.583C304.717 227.493 304.706 227.385 304.703 227.496C304.702 227.538 304.702 227.609 304.692 227.744C304.688 227.813 304.68 227.898 304.665 228.013C304.613 228.192 304.69 228.64 304.035 229.835C303.69 230.413 302.937 231.415 301.448 231.937C299.941 232.488 298.288 232.045 297.565 231.611C296.073 230.692 296.025 230.212 295.813 229.967C295.677 229.743 295.626 229.629 295.59 229.551C295.486 229.302 295.559 229.445 295.584 229.506C295.737 229.868 295.936 230.447 296.115 230.969C296.48 232.047 296.834 233.141 297.178 234.201C297.867 236.331 298.518 238.349 299.161 240.265C300.554 244.175 301.313 247.246 303.732 251.133C305.53 253.996 309.316 255.492 311.342 255.803C313.556 256.234 315.282 256.333 316.864 256.458C320.022 256.673 322.547 256.806 324.889 256.954C327.353 257.104 329.538 257.239 331.795 257.312C332.099 257.322 332.413 257.331 332.735 257.339C336.189 257.452 340.762 256.643 344.571 254.456C348.395 252.307 350.98 249.686 353.186 248.073C354.89 246.824 356.437 245.451 357.757 244.079C360.21 241.653 363.226 237.541 365.964 234.119C369.944 229.723 372.904 222.525 374.073 217.56C374.499 215.982 374.902 214.204 375.31 212.235C375.875 209.495 376.397 206.289 376.671 202.708C377.173 196.352 376.826 187.834 372.919 179.949C371.81 177.619 370.645 175.654 370.164 174.448C368.17 169.628 363.995 166.492 361.107 164.912C358.124 163.255 355.915 162.332 354.545 161.434C353.062 160.502 351.783 159.524 350.807 158.624C350.323 158.178 349.915 157.746 349.651 157.413C349.391 157.111 349.273 156.766 349.513 157.248C349.642 157.479 349.914 158.48 349.64 159.519C349.424 160.389 349.013 160.896 348.876 161.058C348.723 161.233 348.765 161.182 348.923 161.095C349.248 160.902 349.966 160.556 350.786 160.216C352.737 159.319 355.242 158.777 359.121 156.165C364.697 152.257 367.857 145.63 369.381 140.209C369.474 139.896 369.568 139.573 369.659 139.255C372.664 128.973 374.001 117.318 371.763 107.879C371.747 107.818 371.731 107.757 371.715 107.696C368.11 96.4526 362.271 91.3074 357.587 84.5368C352.491 77.3662 344.441 73.7627 339.706 70.6519C335.735 68.0398 330.744 65.942 326.011 65.0626C324.682 64.7967 323.381 64.6112 322.122 64.4742C310.459 63.4291 300.531 65.3951 293.033 67.8937C291.008 68.6386 289.563 69.1472 287.273 70.5488C287.186 70.5908 286.938 70.7374 286.857 70.7897C285.42 72.1762 285.039 73.1358 284.657 73.8712C283.872 75.5037 283.283 76.8038 283.781 77.4992C284.254 78.1673 285.558 78.4109 287.778 77.6057C288.739 77.2517 289.828 76.6468 290.631 76.494L290.335 76.6651C290.978 76.7561 292.909 76.6419 294.651 76.6542C301.597 76.6739 311.493 76.3717 320.567 77.4664C321.515 77.5938 322.445 77.754 323.293 77.9472C326.642 78.6881 329.421 79.949 332.292 81.9024C338.559 86.0669 343.48 88.4663 346.34 92.8127C350.874 99.2936 356.493 106.28 357.659 111.264C357.798 111.842 357.918 112.43 358.02 113.028C359.238 120.197 357.951 128.405 355.65 136.335C354.488 140.412 352.883 143.263 350.709 144.799C350.041 145.333 347.462 146.347 344.632 147.597C343.16 148.31 341.523 148.948 339.283 150.936C338.2 151.945 336.8 153.588 336.162 156.035C335.506 158.475 336.006 160.938 336.643 162.458C338.646 166.68 340.38 167.706 342.154 169.37C343.925 170.861 345.712 172.089 347.585 173.203C350.325 174.804 352.649 175.704 354.331 176.606C356.692 177.863 357.438 178.635 358.049 179.914C361.67 186.742 363.095 189.159 363.693 194.271C364.247 199.026 363.727 204.382 362.696 209.766C362.22 212.234 361.741 214.652 361.18 216.841C360.781 218.396 360.343 219.8 359.818 221.051C358.941 222.927 357.802 224.56 356.261 226.374C351.996 231.715 349.389 234.961 345.757 237.216C340.33 241.043 338.057 242.903 335.854 243.323C334.852 243.571 333.787 243.683 332.639 243.695C326.562 243.746 321.727 244.042 317.81 244.14C316.114 244.182 314.563 244.165 313.598 244.051C313.124 244.001 312.836 243.919 312.863 243.936C312.875 243.939 313.208 244.151 313.308 244.267C313.349 244.308 313.363 244.327 313.34 244.29C313.349 244.364 312.452 242.478 311.799 240.507C311.095 238.474 310.344 235.989 309.553 233.21C309.157 231.819 308.748 230.342 308.312 228.789C308.087 227.992 307.869 227.212 307.582 226.275C307.545 226.154 307.509 226.038 307.47 225.917C307.424 225.772 307.377 225.629 307.327 225.482C307.284 225.357 307.206 225.132 307.116 224.902C307.064 224.77 307.042 224.706 306.914 224.415C306.857 224.287 306.789 224.142 306.695 223.96C306.648 223.868 306.594 223.768 306.529 223.653C306.496 223.595 306.46 223.534 306.421 223.468C306.401 223.436 306.38 223.402 306.358 223.366C306.306 223.283 306.244 223.189 306.174 223.086C305.87 222.679 305.536 222.105 304.337 221.2C303.724 220.765 302.822 220.212 301.415 219.912C300.04 219.594 298.092 219.769 296.686 220.456C293.736 221.947 293.148 223.819 292.765 224.657C292.423 225.578 292.367 226.106 292.316 226.445C292.243 227.039 292.247 227.349 292.247 227.622C292.25 227.923 292.256 228.005 292.262 228.133C292.269 228.252 292.276 228.362 292.284 228.47C292.303 228.711 292.314 228.822 292.329 228.974C292.344 229.12 292.36 229.268 292.378 229.421C292.691 232.257 292.859 235.645 292.892 238.938C292.906 240.591 292.882 242.254 292.791 243.811C292.746 244.585 292.682 245.339 292.599 245.98C292.558 246.294 292.511 246.587 292.469 246.795C292.432 246.999 292.38 247.145 292.444 246.982C291.129 250.499 289.721 253.743 288.056 256.753C287.614 257.555 287.145 258.36 286.645 259.168C283.921 263.52 281.073 267.973 277.757 271.205C276.205 272.717 274.594 274.176 272.941 275.578C270.93 277.286 268.855 278.906 266.769 280.471C260.079 285.675 254.367 288.664 249.809 290.237C249.348 290.402 248.852 290.545 248.377 290.662C241.743 292.205 232.779 292.699 225.804 291.133C222.8 290.435 220.145 289.965 217.714 289.354C216.28 288.999 214.911 288.608 213.583 288.173C207.491 286.522 203.932 285.512 202.962 284.211C202.734 284.037 202.111 282.454 201.896 281.154C201.659 279.962 201.477 278.696 201.089 277.046C200.845 276.179 200.753 275.337 199.755 273.568C199.233 272.771 198.084 270.88 195.096 270.26C192.165 269.833 190.7 270.947 189.86 271.448C187.64 273.153 187.592 274.057 187.182 274.71C186.872 275.365 186.702 275.819 186.542 276.22C186.237 277.006 186.012 277.547 185.829 277.89C184.96 279.445 184.05 281.061 183.01 282.768C181.471 285.269 179.568 288.22 177.278 290.438C174.881 292.667 172.67 295.027 170.087 296.981C168.042 298.533 166.04 299.652 164.018 300.547C160.121 301.929 154.168 302.381 150.07 302.717C146.528 302.97 143.317 303.081 140.156 303.016C135.521 302.9 130.863 302.668 125.316 301.799C124 301.589 122.688 301.353 121.342 301.098C117.364 300.329 113.291 298.129 111.616 295.76C108.727 292.003 106.517 289.274 105.499 286.678C105.186 285.922 104.932 285.118 104.743 284.242C104.072 281.163 103.552 277.865 103.065 274.307C102.222 268.14 101.454 261.574 100.594 255.526C100.557 255.256 100.516 254.988 100.467 254.71C100.265 253.824 100.313 253.156 99.329 251.264C99.0273 250.774 98.614 250.069 97.5277 249.307C96.4603 248.497 94.511 248.191 93.4673 248.449C91.377 248.955 91.1431 249.48 90.8363 249.624C89.438 250.676 88.3219 251.323 87.7834 251.516C85.7663 252.005 84.5316 252.612 83.3681 253.06C82.3375 253.473 81.4047 253.817 80.4838 254.095C76.9825 254.868 73.27 254.903 69.4507 254.515C69.2855 254.485 69.1162 254.453 68.9429 254.419C68.4643 254.327 67.9849 254.23 67.4781 254.123C64.0755 253.467 59.9958 252.106 54.0578 251.269C53.96 251.257 53.8633 251.245 53.7674 251.235C44.3942 250.944 39.0446 249.475 32.4471 245.599C31.4063 244.973 30.3972 244.311 29.3674 243.574C25.5749 240.836 21.5414 237.332 19.1231 233.231C19.0909 233.174 19.0595 233.118 19.0288 233.062C16.3422 228.281 13.1905 223.588 12.4714 219.438C12.3261 218.627 12.2751 217.865 12.3141 217.155C12.6512 209.613 12.6117 202.33 13.1839 198.074C13.4243 196.219 13.6292 194.769 14.0237 193.254C14.0251 193.247 14.0265 193.24 14.0279 193.234C14.0548 193.131 14.0833 193.028 14.1124 192.925C14.1896 192.749 14.2694 192.573 14.3533 192.394C17.3858 185.791 19.0338 179.307 21.9789 174.589C22.2241 174.125 23.8466 172.769 25.6581 171.521C26.5905 170.843 27.5905 170.19 28.8819 168.996C29.5132 168.339 30.3578 167.7 31.1731 165.696C31.5641 164.696 31.7693 163.081 31.3317 161.652C30.9034 160.212 30.1734 159.329 29.5582 158.704C27.8893 157.225 27.3022 157.296 26.7879 157.043C26.3048 156.87 25.9941 156.775 25.7243 156.683C25.1971 156.507 24.8655 156.371 24.5911 156.23C24.0547 155.947 23.7769 155.696 23.4554 155.273C23.1072 154.82 22.7799 154.41 22.4621 154.011C21.7026 153.001 20.9832 152.036 20.3131 151.08C16.9761 146.444 15.048 141.738 14.7237 138.75C14.5854 137.683 14.3873 136.123 14.4904 134.276C14.7104 129.026 14.8893 121.773 15.1586 114.353C15.4225 107.931 15.6265 101.098 16.6553 96.6951C16.8047 96.0273 16.9607 95.3496 17.1125 94.7144C17.9214 91.3337 18.459 88.0906 19.1379 84.858C19.7691 81.8806 20.5577 78.7239 21.8401 76.2507C22.2493 75.4356 22.8949 74.612 22.931 74.6998C23.3351 74.3312 23.7434 73.9707 24.1532 73.6237C25.3845 72.5798 26.606 71.6849 27.8039 71.013C28.5297 70.6096 29.643 69.9306 31.6477 69.2907C33.0881 68.8403 34.7074 68.3739 36.4999 67.9463C39.4865 67.2193 43.164 66.6312 47.2869 65.9276C47.9109 65.8406 48.5264 65.7532 49.1555 65.6612C52.5486 65.1712 55.9774 64.8406 59.2449 64.7761C60.8731 64.7457 62.4736 64.7862 63.8646 64.9362C64.5526 65.0099 65.1944 65.1163 65.6484 65.232C65.8714 65.2879 66.0473 65.3477 66.1117 65.3774C66.1734 65.4014 66.127 65.4156 65.8277 65.2278C65.2233 64.8107 65.1803 64.6939 65.1476 64.6777C65.1325 64.6649 65.2046 64.7583 65.2933 64.8927C65.4766 65.1666 65.7372 65.6025 66.0069 66.0893C66.2813 66.5827 66.5634 67.1215 66.9153 67.7783C67.1015 68.1199 67.2668 68.4426 67.6291 69.0329C67.7291 69.1918 67.8315 69.3568 68.041 69.6485C68.161 69.8112 68.2337 69.9161 68.4875 70.2152C68.7815 70.5166 68.8497 70.7462 70.0495 71.602C70.1969 71.7001 70.3617 71.8024 70.5498 71.9072C70.6439 71.9596 70.7438 72.0125 70.8504 72.0656C70.9037 72.0921 70.9586 72.1186 71.0154 72.1451C71.0789 72.1749 71.187 72.2235 71.2795 72.2622C72.0396 72.5792 73.1594 72.9087 74.5973 72.8144C77.7137 72.7037 80.1129 70.0733 80.619 68.7845C81.4077 67.0788 81.3206 66.3166 81.3787 65.9913C81.4293 65.1181 81.3903 64.9596 81.3728 64.6201C81.3649 64.5081 81.3567 64.3963 81.3481 64.2845C81.3 61.8212 81.376 60.1698 81.6181 58.8006C81.7888 57.8339 82.0342 57.039 82.3058 56.2455C82.6783 55.1707 83.0922 54.0969 83.5443 52.6895C83.8959 51.5881 84.21 50.3228 84.3074 49.4456C84.352 49.0331 84.3427 48.7129 84.3394 48.4138C84.3364 48.0702 84.3358 47.7719 84.4386 47.4223C84.5122 47.1737 84.6483 46.9354 84.8214 46.6398C85.0967 46.1758 85.4572 45.5768 85.8475 44.6129C86.2591 43.6006 86.7372 42.5619 87.288 41.512C89.0569 38.1497 90.9253 34.6378 92.7983 31.6715C93.9785 29.7949 95.2137 28.1288 96.1244 27.2118C99.2236 23.9744 100.674 22.304 102.097 21.3072C102.867 20.7478 103.653 20.2613 104.597 19.8441C104.191 20.0005 104.219 19.9677 104.265 19.9542C104.322 19.9338 104.463 19.8942 104.628 19.854C104.962 19.7721 105.415 19.6802 105.888 19.5966C106.847 19.4272 107.963 19.2755 109.114 19.1503C111.437 18.8983 113.963 18.7437 116.519 18.6831C119.912 18.6015 123.377 18.6898 126.612 18.9106C128.343 19.0323 130.011 19.1414 131.585 19.2448C136.281 19.5644 141.18 19.9523 145.23 20.5732C148.613 21.0916 151.136 21.812 153.475 22.7794C154.953 23.3879 156.373 23.939 157.732 24.424C158.615 24.7391 159.791 24.9451 161.24 25.1932C162.271 25.3709 163.449 25.5726 164.732 25.8489C166.605 26.6227 168.48 27.4231 169.716 28.0996C171.492 29.0567 172.939 30.578 174.497 33.0787C174.551 33.2314 174.605 33.3896 174.661 33.5527C174.661 33.5553 174.662 33.558 174.663 33.5606C174.855 34.1337 175.049 34.7583 175.249 35.4351C175.924 38.1856 176.495 43.4817 179.349 51.5665C179.83 52.8499 180.33 53.9717 180.969 55.1466C181.73 56.3695 182.004 57.4289 184.614 59.8518C185.437 60.5205 186.732 61.5359 189.041 62.0388C191.257 62.5706 194.012 61.8888 195.284 61.1121C198.148 59.3621 198.447 58.2475 199.131 57.2624C199.485 56.6896 199.602 56.4117 199.726 56.1409C199.842 55.8769 199.919 55.6736 199.99 55.4798C200.125 55.1026 200.218 54.7927 200.3 54.4963C200.463 53.908 200.58 53.3829 200.689 52.8483C200.982 51.3894 201.172 49.9933 201.301 48.5315C201.418 47.3646 201.569 46.1361 201.732 44.879C202.177 41.4582 202.688 37.9612 203.077 35.0003C203.103 34.7944 203.134 34.574 203.169 34.3464C203.273 33.6729 203.414 32.9126 203.609 32.0735C204.127 29.946 204.764 27.6253 205.496 25.5329C206.637 23.3886 207.992 21.759 209.221 20.9375C214.18 17.765 223.832 16.3074 232.189 15.9543C235.77 15.8094 239.406 15.8475 242.8 16.1602C248.67 16.5091 250.986 16.5973 253.798 18.2621C258.774 21.7685 264.891 30.1746 269.416 37.473C270.766 39.6523 272 41.914 273.109 44.2383C277.156 52.6348 279.723 61.2916 281.335 67.9314C282.96 74.564 283.856 78.6828 285.502 78.8672C287.053 79.06 289.345 75.1045 290.102 67.3611C290.868 59.6634 289.469 48.9302 285.023 38.8264C283.807 36.0318 282.437 33.2985 280.917 30.6433C275.655 22.0768 271.794 14.3125 261.438 6.13569C256.398 2.64048 249.316 1.77569 245.437 1.56064C245.064 1.51599 244.729 1.47029 244.45 1.42292C243.975 1.35332 243.473 1.28682 242.999 1.22844C235.905 0.399906 229.589 0.120332 223.01 0.333014C221.501 0.388646 219.982 0.478561 218.438 0.616877Z" fill="#41B0C8"/>
</svg>
