<svg width="378" height="315" viewBox="0 0 378 315" fill="none" xmlns="http://www.w3.org/2000/svg">
<path d="M216.455 0.495725C211.845 1.13322 205.76 1.70121 197.923 6.47872C189.268 12.5045 186.658 20.7599 184.719 26.651C183.562 30.3864 183.048 33.9924 182.806 36.7483C182.785 36.9843 182.765 37.2184 182.746 37.4507C182.511 40.4616 182.429 43.0719 182.328 46.017C182.307 46.6694 182.286 47.3244 182.264 48.0154C182.252 48.4339 182.219 48.8469 182.173 49.1687C182.151 49.3255 182.124 49.4649 182.117 49.5027C182.115 49.5178 182.115 49.5127 182.152 49.4077C182.171 49.3527 182.198 49.2759 182.265 49.1142C182.355 48.9244 182.366 48.7903 182.871 47.9537C183.134 47.6696 183.113 47.164 185.209 45.7205C186.18 45.0659 188.507 44.1591 190.823 44.4592C193.216 44.7448 194.606 45.7393 195.36 46.3412C196.077 46.938 196.392 47.3632 196.579 47.6104C196.78 47.8863 196.835 47.9945 196.88 48.0742C196.949 48.2083 196.889 48.117 196.812 47.9455C196.467 47.2006 195.894 45.4807 195.321 43.6032C193.996 39.6565 193.216 35.0428 189.435 27.6003C188.784 26.4406 188.063 25.2454 187.221 24.0034C184.842 20.2598 181.08 16.0218 176.212 13.5097C173.612 12.152 171.531 11.3574 169.462 10.5263C165.747 9.06604 162.251 7.74467 158.731 6.34151C146.054 1.62668 135.958 3.03598 126.322 1.9773C116.326 1.59496 109.034 0.420643 95.522 4.16692C88.6958 6.94498 83.7531 13.0819 81.1663 15.8797C75.0126 22.7123 72.4838 28.8037 69.3024 34.8829C63.8225 45.0994 63.219 58.6276 64.8341 68.0267C64.8282 67.959 64.8209 67.8666 64.8155 67.7345C64.8118 67.6237 64.8008 67.3866 64.8235 66.9978C64.882 66.6904 64.7508 65.9356 65.6052 64.0022C66.1451 62.5495 68.8509 59.4845 72.4208 59.3065C74.0656 59.1743 75.3462 59.5329 76.2077 59.877C76.3125 59.919 76.4355 59.9721 76.5064 60.0041C76.5705 60.0329 76.6326 60.0618 76.6928 60.0906C76.813 60.1482 76.9255 60.2057 77.0311 60.2625C77.2424 60.376 77.4264 60.4866 77.5899 60.5919C78.9136 61.5079 78.9422 61.7146 79.2226 61.9862C79.4495 62.2458 79.4967 62.3157 79.5777 62.4218C79.7107 62.6022 79.7339 62.6451 79.7519 62.6731C79.787 62.7381 79.6195 62.4677 79.4767 62.222C79.1678 61.6943 78.792 61.0344 78.3706 60.3383C77.9431 59.6348 77.4743 58.8837 76.8353 58.0077C76.0912 57.1008 75.6846 56.1766 73.2016 54.4341C68.644 51.8834 66.4868 52.1881 64.0553 51.874C61.7208 51.7176 59.6076 51.7646 57.5349 51.8792C53.4131 52.1213 49.4989 52.6644 45.6196 53.3767C39.82 54.469 32.9527 55.3881 26.3652 57.5317C25.0707 57.9356 23.7454 58.4295 22.4338 59.036C21.4702 59.4657 20.4992 59.9631 19.5587 60.5165C16.3087 62.4207 13.6552 64.8737 11.4271 67.1445C5.88152 73.9205 5.60244 78.2598 3.98209 83.2171C2.6887 88.0216 1.76592 92.6379 1.03562 96.943C0.24296 101.758 0.269088 105.692 0.243735 108.984C0.328706 121.135 0.769832 129.895 1.05628 137.335C1.15347 140.138 1.63626 142.704 2.31407 145.014C4.64426 153.57 10.2708 160.372 14.7189 165.428C16.1234 167.17 18.1198 168.666 20.0788 169.536C21.0459 169.978 22.0037 170.288 22.736 170.502C23.0945 170.607 23.4073 170.695 23.4942 170.722C23.533 170.732 23.5133 170.73 23.3277 170.644C23.1442 170.543 22.7576 170.419 21.9918 169.709C21.6979 169.411 21.1593 168.844 20.7995 167.704C20.4281 166.57 20.5983 165.243 20.8473 164.609C21.0956 163.935 21.293 163.719 21.3763 163.602C21.4603 163.499 21.456 163.52 21.4012 163.578C21.1513 163.856 20.3049 164.535 19.4269 165.208C17.6337 166.698 15.3202 167.988 12.9513 171.769C9.04056 178.848 7.75292 185.601 5.41077 191.021C1.00733 202.078 3.17423 211.223 2.818 220.054C3.16284 229.864 8.73963 235.791 11.7035 241.068C15.4587 247.102 20.09 250.945 25.0036 254.58C30.9235 258.858 37.9686 262.235 45.6171 263.323C48.8992 263.854 52.9213 263.764 54.9442 263.85C59.4867 264.205 64.5781 265.334 69.9253 265.775C73.6214 266.108 77.4386 266.159 81.3643 265.578C85.1571 265.12 89.6123 263.313 91.4603 262.903C92.2481 262.748 92.9699 262.526 93.6276 262.275C95.6076 261.505 97.0437 260.547 98.317 259.682C98.4563 259.582 98.4932 259.576 98.2452 259.712C98.0034 259.806 97.34 260.287 95.7288 260.147C94.0602 259.969 92.9473 258.852 92.6552 258.434C92.3012 257.957 92.2538 257.771 92.2068 257.673C92.1413 257.496 92.1971 257.64 92.2285 257.811C92.2657 257.992 92.3059 258.237 92.3416 258.506C93.7127 268.298 94.7653 277.95 96.933 288.049C97.3328 289.873 97.9497 291.697 98.7504 293.397C100.806 297.903 103.732 301.093 105.773 303.841C109.486 308.497 114.13 310.665 118.565 312.046C119.839 312.425 121.121 312.72 122.433 312.929C129.843 314.16 136.627 314.525 142.469 314.773C143.965 314.831 145.401 314.852 146.781 314.85C154.54 314.59 161.151 315.025 171.155 311.74C178.098 308.894 183.808 303.039 187.519 299.359C191.786 295.144 194.05 291.134 196.249 287.464C196.945 286.265 197.593 285.101 198.199 283.997C199.04 282.472 199.48 281.137 199.783 280.356C199.88 280.117 199.968 279.933 199.955 279.97C199.884 280.004 199.992 280.32 198.664 281.358C198.397 281.501 197.904 282.02 196.172 282.118C195.309 282.147 194.287 281.879 193.587 281.478C192.888 281.086 192.501 280.683 192.257 280.402C191.812 279.856 191.797 279.708 191.773 279.685C191.764 279.667 191.804 279.776 191.85 279.933C192.05 280.6 192.305 281.803 192.603 283.047C193.302 285.557 193.735 288.646 196.91 292.256C202.689 297.859 208.906 297.997 212.239 299.275C214.274 299.966 216.361 300.559 218.402 301.056C219.259 301.191 220.112 301.31 220.958 301.419C222.529 301.623 224.074 301.82 225.576 302.075C234.199 303.354 243.13 303.879 256.092 299.878C259.29 298.654 262.757 297.147 266.285 295.135C269.469 293.331 272.581 291.175 275.697 288.933C279.591 286.138 283.826 282.895 288.016 278.961C289.277 277.782 290.494 276.494 291.632 275.149C295.636 270.292 297.319 267.015 298.727 264.49C299.227 263.57 299.644 262.729 300.024 261.928C300.46 261.007 300.845 260.138 301.231 259.26C302.504 256.355 304.006 253.397 305.557 249.932C305.642 249.727 305.719 249.523 305.79 249.319C307.639 242.69 307.611 237.141 306.587 228.805C306.473 228.03 306.352 227.266 306.215 226.492C306.188 226.344 306.167 226.225 306.151 226.14C306.133 226.05 306.12 225.942 306.119 226.054C306.119 226.096 306.119 226.166 306.112 226.302C306.108 226.37 306.102 226.456 306.089 226.571C306.04 226.75 306.123 227.197 305.486 228.402C305.15 228.985 304.413 229.998 302.931 230.542C301.432 231.117 299.773 230.698 299.043 230.275C297.538 229.378 297.483 228.899 297.267 228.658C297.127 228.436 297.075 228.322 297.038 228.244C296.931 227.998 297.005 228.139 297.031 228.2C297.19 228.56 297.398 229.136 297.584 229.655C297.965 230.727 298.336 231.816 298.695 232.87C299.417 234.99 300.098 236.998 300.769 238.904C302.221 242.793 303.026 245.852 305.503 249.703C307.344 252.538 311.152 253.977 313.183 254.257C315.403 254.655 317.131 254.728 318.714 254.829C321.875 254.997 324.401 255.092 326.745 255.205C329.211 255.318 331.398 255.42 333.656 255.459C333.96 255.464 334.274 255.469 334.597 255.472C338.051 255.533 342.612 254.655 346.388 252.412C350.179 250.205 352.724 247.546 354.906 245.899C356.591 244.625 358.117 243.229 359.416 241.837C361.833 239.375 364.786 235.218 367.473 231.755C371.386 227.3 374.237 220.058 375.332 215.076C375.735 213.492 376.111 211.708 376.489 209.733C377.013 206.985 377.487 203.771 377.707 200.187C378.113 193.824 377.638 185.312 373.613 177.487C372.469 175.173 371.274 173.226 370.776 172.028C368.709 167.238 364.488 164.166 361.576 162.629C358.569 161.017 356.346 160.127 354.963 159.25C353.466 158.34 352.172 157.381 351.184 156.496C350.693 156.057 350.278 155.632 350.009 155.303C349.744 155.005 349.621 154.662 349.869 155.14C350.001 155.369 350.288 156.365 350.03 157.409C349.827 158.282 349.424 158.795 349.289 158.959C349.138 159.136 349.18 159.085 349.336 158.996C349.658 158.798 350.371 158.441 351.186 158.088C353.124 157.163 355.62 156.583 359.46 153.913C364.976 149.922 368.036 143.248 369.479 137.804C369.567 137.49 369.656 137.165 369.743 136.846C372.593 126.52 373.754 114.847 371.374 105.443C371.358 105.382 371.341 105.321 371.324 105.261C367.55 94.0721 361.635 89.0152 356.85 82.3157C351.647 75.2224 343.543 71.7403 338.762 68.701C334.752 66.1488 329.73 64.1263 324.985 63.318C323.652 63.0722 322.348 62.9063 321.087 62.7882C309.409 61.9185 299.512 64.0333 292.052 66.6443C290.039 67.4195 288.602 67.9498 286.334 69.3856C286.247 69.429 286.001 69.5792 285.921 69.6327C284.505 71.0407 284.138 72.006 283.767 72.747C283.007 74.3911 282.438 75.6998 282.946 76.3877C283.429 77.0487 284.737 77.2727 286.944 76.4342C287.899 76.0658 288.98 75.4446 289.78 75.2797L289.487 75.4553C290.131 75.5366 292.06 75.3933 293.802 75.3795C300.747 75.2948 310.638 74.844 319.727 75.8023C320.678 75.9154 321.61 76.0616 322.46 76.242C325.82 76.9326 328.617 78.1515 331.518 80.0616C337.847 84.1315 342.803 86.4567 345.728 90.7597C350.359 97.1717 356.083 104.073 357.323 109.039C357.47 109.615 357.599 110.201 357.711 110.797C359.036 117.947 357.872 126.174 355.691 134.137C354.59 138.231 353.029 141.106 350.878 142.674C350.218 143.218 347.654 144.271 344.843 145.564C343.382 146.299 341.755 146.961 339.545 148.983C338.478 150.008 337.102 151.671 336.501 154.127C335.882 156.578 336.418 159.032 337.079 160.543C339.145 164.735 340.894 165.734 342.693 167.371C344.485 168.835 346.291 170.036 348.181 171.122C350.944 172.681 353.281 173.547 354.977 174.423C357.357 175.645 358.114 176.405 358.744 177.675C362.467 184.448 363.928 186.844 364.603 191.946C365.228 196.691 364.789 202.055 363.839 207.454C363.401 209.929 362.957 212.354 362.43 214.551C362.054 216.112 361.637 217.522 361.131 218.781C360.282 220.67 359.168 222.32 357.654 224.157C353.47 229.562 350.912 232.847 347.315 235.156C341.945 239.064 339.701 240.958 337.504 241.411C336.506 241.674 335.443 241.802 334.295 241.831C328.22 241.973 323.389 242.341 319.475 242.499C317.78 242.566 316.228 242.572 315.261 242.473C314.787 242.43 314.498 242.352 314.525 242.369C314.538 242.371 314.873 242.578 314.975 242.693C315.017 242.733 315.031 242.752 315.007 242.716C315.017 242.79 314.092 240.917 313.409 238.956C312.675 236.934 311.887 234.46 311.055 231.694C310.637 230.309 310.206 228.839 309.747 227.292C309.51 226.498 309.28 225.721 308.979 224.789C308.94 224.668 308.903 224.554 308.862 224.433C308.813 224.289 308.764 224.146 308.712 224C308.668 223.876 308.586 223.652 308.493 223.423C308.439 223.292 308.416 223.228 308.284 222.94C308.224 222.812 308.155 222.668 308.058 222.487C308.01 222.397 307.954 222.297 307.887 222.183C307.853 222.126 307.817 222.065 307.776 222C307.755 221.968 307.734 221.934 307.712 221.899C307.658 221.817 307.595 221.723 307.524 221.622C307.214 221.219 306.871 220.65 305.658 219.764C305.039 219.337 304.128 218.798 302.718 218.52C301.337 218.222 299.393 218.426 297.997 219.134C295.07 220.669 294.511 222.55 294.14 223.394C293.811 224.32 293.763 224.849 293.718 225.188C293.653 225.783 293.663 226.094 293.666 226.367C293.674 226.667 293.682 226.75 293.689 226.877C293.697 226.996 293.707 227.106 293.716 227.214C293.739 227.454 293.752 227.566 293.769 227.717C293.786 227.863 293.804 228.01 293.824 228.163C294.18 230.994 294.399 234.379 294.481 237.672C294.52 239.324 294.521 240.987 294.454 242.545C294.42 243.32 294.367 244.075 294.294 244.717C294.258 245.031 294.215 245.326 294.177 245.534C294.143 245.738 294.093 245.885 294.154 245.721C292.892 249.258 291.533 252.522 289.914 255.557C289.484 256.365 289.027 257.178 288.539 257.993C285.881 262.386 283.1 266.881 279.833 270.162C278.304 271.698 276.715 273.181 275.083 274.607C273.097 276.345 271.048 277.996 268.985 279.592C262.374 284.896 256.708 287.97 252.174 289.612C251.715 289.784 251.222 289.934 250.749 290.059C244.138 291.701 235.183 292.33 228.185 290.868C225.171 290.216 222.509 289.786 220.069 289.211C218.63 288.878 217.255 288.507 215.921 288.092C209.805 286.534 206.231 285.576 205.241 284.29C205.011 284.119 204.365 282.547 204.13 281.25C203.875 280.061 203.674 278.798 203.261 277.154C203.004 276.292 202.9 275.45 201.875 273.697C201.341 272.908 200.164 271.034 197.166 270.459C194.23 270.077 192.782 271.212 191.95 271.726C189.755 273.464 189.72 274.368 189.321 275.028C189.021 275.687 188.857 276.143 188.704 276.547C188.411 277.337 188.193 277.882 188.016 278.228C187.17 279.795 186.284 281.424 185.27 283.147C183.769 285.671 181.911 288.651 179.654 290.902C177.291 293.167 175.115 295.56 172.562 297.553C170.541 299.135 168.555 300.284 166.548 301.209C162.672 302.65 156.726 303.191 152.633 303.589C149.096 303.895 145.887 304.054 142.725 304.037C138.089 303.99 133.428 303.828 127.869 303.043C126.55 302.852 125.234 302.637 123.885 302.402C119.895 301.692 115.79 299.554 114.079 297.211C111.134 293.497 108.883 290.802 107.827 288.221C107.502 287.47 107.236 286.67 107.034 285.797C106.317 282.728 105.748 279.439 105.207 275.889C104.272 269.735 103.405 263.18 102.454 257.146C102.413 256.877 102.368 256.61 102.315 256.332C102.1 255.45 102.138 254.781 101.125 252.904C100.816 252.418 100.392 251.72 99.2948 250.974C98.2153 250.181 96.2617 249.904 95.222 250.177C93.1395 250.715 92.9135 251.244 92.6089 251.392C91.2265 252.465 90.1203 253.128 89.5847 253.329C87.5752 253.849 86.3498 254.475 85.1931 254.939C84.1689 255.368 83.2413 255.726 82.3247 256.017C78.8354 256.843 75.1239 256.934 71.2992 256.603C71.1335 256.576 70.9638 256.546 70.79 256.515C70.31 256.431 69.8293 256.34 69.3209 256.241C65.9088 255.636 61.8091 254.337 55.8592 253.589C55.7612 253.578 55.6644 253.568 55.5684 253.559C46.1918 253.409 40.8208 252.02 34.1659 248.245C33.1157 247.634 32.0968 246.987 31.056 246.266C27.2228 243.585 23.1372 240.142 20.6575 236.078C20.6245 236.022 20.5922 235.966 20.5607 235.91C17.8025 231.171 14.5807 226.525 13.7994 222.386C13.6419 221.578 13.5795 220.817 13.6077 220.106C13.8315 212.56 13.6826 205.278 14.1908 201.014C14.4033 199.156 14.5865 197.703 14.958 196.182C14.9593 196.175 14.9607 196.168 14.962 196.162C14.9874 196.059 15.0142 195.955 15.0419 195.851C15.1164 195.674 15.1935 195.497 15.2747 195.317C18.2077 188.669 19.758 182.161 22.6319 177.4C22.8702 176.932 24.4721 175.552 26.2646 174.277C27.1868 173.585 28.1769 172.917 29.4502 171.704C30.0716 171.038 30.9065 170.386 31.6915 168.369C32.0675 167.364 32.2484 165.746 31.7894 164.323C31.3394 162.89 30.5963 162.018 29.9718 161.403C28.2808 159.949 27.6949 160.029 27.1768 159.783C26.6912 159.618 26.3792 159.528 26.108 159.44C25.5782 159.271 25.2446 159.14 24.9681 159.003C24.4275 158.729 24.1459 158.482 23.8181 158.064C23.4632 157.616 23.1297 157.211 22.8059 156.817C22.0314 155.818 21.2976 154.864 20.6132 153.919C17.2069 149.333 15.2083 144.656 14.8392 141.674C14.6848 140.609 14.4633 139.052 14.5387 137.204C14.6798 131.951 14.7497 124.697 14.9075 117.272C15.0749 110.848 15.1763 104.012 16.1388 99.5945C16.2781 98.9246 16.4239 98.2446 16.5662 97.6072C17.3242 94.2147 17.813 90.964 18.4432 87.7215C19.0297 84.7349 19.7708 81.5667 21.0158 79.0746C21.4127 78.2534 22.0459 77.4202 22.0833 77.5075C22.4818 77.1329 22.8847 76.7662 23.2892 76.4131C24.5047 75.3508 25.7126 74.4377 26.9003 73.7478C27.6199 73.3336 28.7229 72.638 30.7178 71.968C32.1513 71.496 33.7634 71.0053 35.5492 70.5509C38.5246 69.7791 42.1928 69.1358 46.3046 68.3703C46.9273 68.274 47.5414 68.1773 48.1691 68.0759C51.5544 67.5349 54.9778 67.1529 58.244 67.0393C59.8716 66.9844 61.4725 67.0009 62.8656 67.13C63.5546 67.1933 64.198 67.2901 64.6536 67.399C64.8775 67.4515 65.0543 67.5086 65.1191 67.5373C65.1811 67.5604 65.135 67.5753 64.8329 67.3921C64.2222 66.9841 64.1775 66.8679 64.1445 66.8523C64.1293 66.8397 64.2028 66.932 64.2935 67.0651C64.4809 67.3361 64.7481 67.768 65.025 68.2508C65.3068 68.74 65.5969 69.2745 65.9587 69.9259C66.15 70.2647 66.3201 70.5849 66.6913 71.1696C66.7936 71.3271 66.8985 71.4905 67.1124 71.779C67.2348 71.9399 67.309 72.0437 67.5673 72.339C67.8658 72.6359 67.9374 72.8644 69.15 73.7021C69.2988 73.798 69.4652 73.8978 69.6548 73.9998C69.7497 74.0507 69.8504 74.1021 69.9577 74.1536C70.0114 74.1793 70.0667 74.205 70.1239 74.2307C70.1878 74.2595 70.2967 74.3065 70.3898 74.3438C71.1546 74.6493 72.2791 74.9619 73.7155 74.8461C76.8298 74.6885 79.1893 72.0224 79.6759 70.7261C80.439 69.0088 80.3404 68.248 80.3936 67.9219C80.4311 67.048 80.3897 66.8901 80.3671 66.5509C80.3575 66.439 80.3476 66.3274 80.3374 66.2158C80.2522 63.7534 80.3035 62.101 80.5249 60.7284C80.6811 59.7592 80.9145 58.9607 81.1741 58.1633C81.5305 57.083 81.9282 56.0031 82.3591 54.589C82.6942 53.4825 82.9892 52.2126 83.0734 51.3341C83.1118 50.9209 83.0977 50.6009 83.0899 50.3018C83.0817 49.9583 83.0767 49.6601 83.1742 49.3089C83.244 49.0593 83.3766 48.819 83.5452 48.5208C83.8135 48.0527 84.165 47.4484 84.5407 46.4788C84.937 45.4603 85.3995 44.4146 85.9345 43.3565C87.6526 39.9681 89.4681 36.4284 91.2963 33.4344C92.4481 31.5402 93.6582 29.8558 94.555 28.9252C97.6053 25.6416 99.0299 23.9496 100.438 22.9315C101.2 22.3606 101.978 21.8623 102.916 21.4311C102.513 21.5936 102.54 21.5603 102.586 21.5462C102.643 21.5249 102.783 21.4832 102.947 21.4405C103.28 21.3535 103.731 21.2549 104.204 21.1642C105.159 20.9804 106.273 20.8119 107.422 20.6695C109.741 20.3826 112.265 20.1901 114.819 20.091C118.211 19.9585 121.677 19.9947 124.914 20.1669C126.647 20.2626 128.317 20.3467 129.891 20.4264C134.592 20.6754 139.496 20.9896 143.556 21.5496C146.946 22.0171 149.479 22.6996 151.833 23.6317C153.319 24.218 154.748 24.7476 156.114 25.2121C157.001 25.514 158.18 25.7023 159.633 25.9285C160.666 26.0907 161.847 26.2748 163.134 26.5317C165.018 27.2773 166.906 28.0494 168.152 28.7073C169.942 29.6376 171.412 31.137 173.007 33.614C173.063 33.7659 173.12 33.9233 173.178 34.0855C173.178 34.0881 173.179 34.0908 173.18 34.0934C173.381 34.6635 173.584 35.2851 173.794 35.9588C174.511 38.6989 175.161 43.9858 178.136 52.0269C178.636 53.3028 179.153 54.4171 179.809 55.5822C180.589 56.7936 180.878 57.8487 183.525 60.2321C184.358 60.8883 185.668 61.8842 187.984 62.3524C190.208 62.8508 192.953 62.1277 194.212 61.332C197.05 59.5392 197.332 58.4201 198.002 57.4249C198.347 56.8468 198.46 56.5672 198.579 56.2946C198.692 56.0289 198.766 55.8245 198.833 55.6297C198.963 55.2504 199.051 54.9392 199.129 54.6415C199.283 54.0508 199.392 53.5241 199.493 52.9879C199.764 51.5248 199.933 50.126 200.04 48.6624C200.14 47.4939 200.272 46.2632 200.416 45.0038C200.81 41.5767 201.268 38.0724 201.612 35.106C201.636 34.8998 201.663 34.6789 201.695 34.4508C201.788 33.7758 201.918 33.0135 202.1 32.1716C202.587 30.0366 203.188 27.7066 203.889 25.6033C204.998 23.4421 206.328 21.7924 207.544 20.9525C212.455 17.7059 222.084 16.1034 230.436 15.6248C234.014 15.4261 237.65 15.4097 241.048 15.6713C246.923 15.932 249.24 15.9854 252.077 17.6077C257.104 21.039 263.347 29.3523 267.981 36.5818C269.364 38.7406 270.632 40.9835 271.776 43.2909C275.948 51.6256 278.645 60.2429 280.356 66.8577C282.081 73.4652 283.039 77.5701 284.687 77.7297C286.241 77.8992 288.473 73.9097 289.114 66.1558C289.764 58.4474 288.204 47.7365 283.607 37.7006C282.348 34.9246 280.938 32.2122 279.379 29.5801C273.988 21.0937 270.011 13.3882 259.533 5.36791C254.441 1.94883 247.347 1.19052 243.465 1.03377C243.091 0.994738 242.756 0.95407 242.477 0.910884C242.001 0.848439 241.497 0.789497 241.023 0.738237C233.917 0.0163681 227.598 -0.168286 221.023 0.143207C219.514 0.221508 217.997 0.33423 216.455 0.495725Z" fill="#D65E40"/>
</svg>
