<svg width="377" height="315" viewBox="0 0 377 315" fill="none" xmlns="http://www.w3.org/2000/svg">
<path d="M218.361 1.24188C213.742 1.81003 207.649 2.28656 199.741 6.94579C190.996 12.8408 188.263 21.0561 186.236 26.9174C185.022 30.6351 184.454 34.2329 184.171 36.9848C184.146 37.2204 184.122 37.4542 184.1 37.6862C183.821 40.6933 183.699 43.302 183.554 46.2453C183.523 46.8973 183.492 47.5519 183.46 48.2425C183.442 48.6608 183.402 49.0732 183.351 49.3943C183.327 49.5508 183.298 49.6897 183.29 49.7275C183.288 49.7425 183.288 49.7374 183.326 49.6329C183.347 49.5782 183.374 49.5019 183.444 49.3412C183.537 49.1528 183.55 49.0189 184.067 48.19C184.335 47.9098 184.322 47.4039 186.439 45.9921C187.42 45.3522 189.76 44.4805 192.071 44.8153C194.46 45.1368 195.834 46.1521 196.579 46.7653C197.288 47.3728 197.596 47.8026 197.78 48.0526C197.976 48.3315 198.03 48.4405 198.073 48.5209C198.14 48.656 198.082 48.5638 198.008 48.3912C197.674 47.6412 197.127 45.9129 196.582 44.0269C195.316 40.0608 194.606 35.4359 190.936 27.9374C190.303 26.7681 189.601 25.5622 188.777 24.3077C186.455 20.5288 182.757 16.2347 177.927 13.6498C175.348 12.2532 173.278 11.4274 171.223 10.5653C167.53 9.04942 164.054 7.67568 160.556 6.2198C147.951 1.31505 137.835 2.57251 128.215 1.36918C118.227 0.836712 110.953 -0.447018 97.3863 3.09584C90.5192 5.77104 85.4848 11.833 82.8563 14.5916C76.6006 21.331 73.9806 27.3838 70.7082 33.4144C65.0754 43.5475 64.2688 57.0651 65.7425 66.4874C65.7376 66.4196 65.7317 66.3271 65.7283 66.1949C65.7263 66.0841 65.7188 65.8469 65.7473 65.4584C65.8104 65.1519 65.6906 64.3952 66.5739 62.4749C67.1357 61.0305 69.8872 58.0065 73.4593 57.8821C75.1059 57.7747 76.381 58.1524 77.2372 58.5095C77.3414 58.5531 77.4635 58.608 77.534 58.6411C77.5977 58.6708 77.6593 58.7006 77.719 58.7303C77.8384 58.7898 77.95 58.8489 78.0548 58.9073C78.2643 59.024 78.4466 59.1373 78.6085 59.245C79.9183 60.1809 79.9438 60.3879 80.2201 60.6637C80.4431 60.9267 80.4892 60.9973 80.5686 61.1046C80.6989 61.287 80.7214 61.3302 80.739 61.3585C80.7731 61.424 80.6097 61.1512 80.4707 60.9034C80.1697 60.3711 79.8039 59.7056 79.393 59.0032C78.976 58.2934 78.5186 57.5353 77.8928 56.6499C77.1625 55.7319 76.7698 54.8016 74.3132 53.0221C69.7945 50.4031 67.6329 50.6754 65.2064 50.3248C62.8745 50.1334 60.7609 50.1486 58.6867 50.2321C54.5618 50.4122 50.6398 50.8965 46.7503 51.5503C40.9348 52.5554 34.0545 53.3713 27.4355 55.4157C26.1351 55.8001 24.8026 56.274 23.482 56.8607C22.5121 57.2759 21.5337 57.7587 20.585 58.2979C17.3068 60.153 14.6167 62.5659 12.3548 64.803C6.70801 71.4949 6.36376 75.8294 4.66914 80.7619C3.3037 85.5464 2.31168 90.1483 1.5168 94.442C0.651885 99.244 0.618909 103.179 0.544093 106.47C0.446504 118.621 0.755985 127.386 0.930623 134.829C0.985686 137.634 1.42987 140.207 2.0729 142.527C4.27429 151.117 9.79799 158.003 14.1697 163.125C15.5478 164.888 17.5215 166.414 19.4673 167.312C20.4276 167.769 21.3806 168.094 22.1097 168.319C22.4665 168.429 22.7779 168.522 22.8644 168.55C22.9031 168.56 22.8834 168.558 22.6991 168.47C22.5171 168.366 22.1324 168.236 21.3774 167.514C21.0881 167.212 20.558 166.637 20.2154 165.492C19.8611 164.352 20.0512 163.028 20.3096 162.398C20.5681 161.728 20.7686 161.514 20.8537 161.399C20.9393 161.297 20.9346 161.319 20.879 161.375C20.6249 161.649 19.7685 162.316 18.8804 162.976C17.065 164.439 14.7324 165.694 12.307 169.438C8.29035 176.458 6.90141 183.191 4.4781 188.575C-0.0909676 199.565 1.93828 208.741 1.44942 217.566C1.64684 227.38 7.13397 233.39 10.0182 238.711C13.6824 244.801 18.2554 248.713 23.1139 252.421C28.9688 256.787 35.9623 260.271 43.5936 261.472C46.8674 262.053 50.8904 262.023 52.9118 262.14C57.4484 262.563 62.5223 263.769 67.8623 264.29C71.5529 264.679 75.369 264.786 79.303 264.265C83.1022 263.863 87.584 262.124 89.4381 261.741C90.228 261.599 90.9531 261.387 91.6145 261.146C93.6059 260.406 95.0562 259.469 96.3423 258.624C96.4831 258.526 96.5201 258.52 96.2701 258.653C96.0269 258.743 95.3564 259.214 93.7474 259.05C92.0817 258.847 90.9857 257.713 90.6999 257.291C90.3532 256.809 90.3085 256.622 90.263 256.523C90.2002 256.345 90.2538 256.49 90.2827 256.662C90.3171 256.843 90.3536 257.089 90.3853 257.358C91.609 267.17 92.5165 276.837 94.5324 286.967C94.9046 288.797 95.4941 290.63 96.2691 292.342C98.2564 296.878 101.135 300.112 103.134 302.89C106.777 307.602 111.387 309.839 115.801 311.286C117.069 311.684 118.347 311.999 119.656 312.227C127.046 313.57 133.824 314.036 139.662 314.372C141.157 314.452 142.592 314.496 143.972 314.514C151.734 314.37 158.338 314.905 168.39 311.77C175.375 309.029 181.172 303.26 184.938 299.637C189.268 295.486 191.592 291.511 193.846 287.874C194.56 286.686 195.226 285.531 195.848 284.437C196.711 282.925 197.171 281.596 197.486 280.82C197.587 280.583 197.678 280.4 197.664 280.437C197.592 280.47 197.695 280.787 196.353 281.805C196.083 281.944 195.583 282.456 193.849 282.527C192.986 282.544 191.968 282.261 191.274 281.848C190.581 281.447 190.2 281.037 189.961 280.753C189.523 280.2 189.511 280.052 189.488 280.029C189.478 280.011 189.517 280.12 189.561 280.278C189.751 280.948 189.988 282.154 190.267 283.403C190.928 285.923 191.314 289.019 194.434 292.676C200.129 298.365 206.343 298.596 209.656 299.924C211.681 300.646 213.759 301.27 215.792 301.797C216.647 301.946 217.498 302.077 218.343 302.199C219.911 302.427 221.452 302.647 222.95 302.924C231.553 304.333 240.475 304.991 253.495 301.185C256.712 300.01 260.201 298.555 263.759 296.597C266.97 294.841 270.113 292.731 273.262 290.536C277.198 287.801 281.481 284.621 285.731 280.751C287.009 279.591 288.245 278.321 289.403 276.994C293.48 272.198 295.211 268.946 296.658 266.442C297.171 265.53 297.601 264.696 297.993 263.9C298.442 262.986 298.841 262.123 299.239 261.25C300.557 258.365 302.102 255.43 303.705 251.989C303.794 251.784 303.874 251.582 303.948 251.379C305.896 244.778 305.951 239.229 305.052 230.88C304.95 230.103 304.841 229.338 304.716 228.561C304.691 228.413 304.671 228.293 304.656 228.208C304.64 228.118 304.629 228.01 304.626 228.121C304.625 228.163 304.625 228.234 304.615 228.369C304.611 228.438 304.603 228.523 304.589 228.638C304.536 228.817 304.613 229.265 303.958 230.46C303.613 231.038 302.861 232.04 301.371 232.562C299.864 233.113 298.211 232.67 297.488 232.236C295.996 231.317 295.948 230.837 295.736 230.592C295.6 230.368 295.549 230.254 295.513 230.176C295.41 229.927 295.482 230.07 295.507 230.131C295.66 230.493 295.859 231.072 296.038 231.594C296.403 232.672 296.757 233.766 297.101 234.826C297.79 236.956 298.442 238.974 299.084 240.89C300.477 244.8 301.236 247.871 303.655 251.758C305.453 254.621 309.239 256.117 311.265 256.428C313.479 256.859 315.206 256.958 316.787 257.083C319.945 257.298 322.47 257.431 324.812 257.579C327.276 257.729 329.461 257.864 331.719 257.937C332.023 257.947 332.336 257.956 332.658 257.964C336.112 258.077 340.685 257.268 344.494 255.081C348.318 252.932 350.903 250.311 353.109 248.698C354.813 247.449 356.36 246.076 357.68 244.704C360.133 242.278 363.149 238.166 365.887 234.744C369.867 230.348 372.827 223.15 373.996 218.185C374.423 216.607 374.825 214.829 375.233 212.86C375.798 210.12 376.32 206.914 376.594 203.333C377.096 196.977 376.749 188.459 372.842 180.574C371.733 178.244 370.568 176.279 370.087 175.073C368.093 170.253 363.918 167.117 361.03 165.537C358.047 163.88 355.838 162.957 354.468 162.059C352.985 161.127 351.706 160.149 350.731 159.249C350.246 158.803 349.838 158.371 349.574 158.038C349.314 157.736 349.196 157.391 349.437 157.873C349.565 158.104 349.837 159.105 349.563 160.144C349.347 161.014 348.936 161.521 348.799 161.683C348.646 161.858 348.688 161.807 348.846 161.72C349.171 161.527 349.889 161.181 350.709 160.841C352.66 159.944 355.165 159.402 359.044 156.79C364.62 152.882 367.78 146.255 369.305 140.834C369.397 140.521 369.492 140.198 369.583 139.88C372.588 129.598 373.924 117.943 371.686 108.504C371.67 108.443 371.655 108.382 371.639 108.321C368.033 97.0776 362.194 91.9324 357.511 85.1618C352.415 77.9912 344.364 74.3877 339.629 71.2769C335.659 68.6648 330.667 66.567 325.935 65.6876C324.605 65.4217 323.304 65.2362 322.045 65.0992C310.382 64.0541 300.454 66.0201 292.956 68.5187C290.931 69.2636 289.486 69.7722 287.196 71.1738C287.109 71.2158 286.862 71.3624 286.78 71.4147C285.343 72.8012 284.962 73.7608 284.58 74.4962C283.795 76.1287 283.206 77.4288 283.704 78.1242C284.177 78.7923 285.482 79.036 287.701 78.2307C288.662 77.8767 289.752 77.2718 290.554 77.119L290.258 77.2901C290.901 77.3811 292.832 77.2669 294.574 77.2792C301.52 77.2989 311.416 76.9967 320.49 78.0914C321.439 78.2188 322.368 78.379 323.216 78.5722C326.565 79.3131 329.344 80.574 332.215 82.5274C338.483 86.6919 343.403 89.0913 346.263 93.4377C350.797 99.9186 356.417 106.905 357.582 111.889C357.721 112.467 357.841 113.055 357.944 113.653C359.161 120.822 357.874 129.03 355.573 136.96C354.411 141.037 352.807 143.888 350.632 145.424C349.964 145.958 347.385 146.972 344.555 148.222C343.083 148.935 341.446 149.573 339.206 151.561C338.124 152.57 336.723 154.213 336.085 156.66C335.43 159.1 335.929 161.563 336.567 163.083C338.57 167.305 340.303 168.331 342.077 169.995C343.848 171.486 345.635 172.714 347.508 173.828C350.248 175.429 352.572 176.329 354.255 177.231C356.615 178.488 357.361 179.26 357.972 180.539C361.593 187.367 363.018 189.784 363.616 194.896C364.17 199.651 363.65 205.007 362.619 210.391C362.144 212.859 361.664 215.277 361.103 217.466C360.704 219.021 360.266 220.425 359.741 221.676C358.864 223.552 357.725 225.185 356.184 226.999C351.919 232.34 349.312 235.586 345.68 237.841C340.253 241.668 337.981 243.528 335.777 243.948C334.775 244.196 333.711 244.308 332.562 244.32C326.485 244.371 321.65 244.667 317.733 244.765C316.037 244.807 314.486 244.79 313.521 244.676C313.048 244.626 312.759 244.544 312.786 244.561C312.799 244.564 313.131 244.776 313.231 244.892C313.272 244.933 313.286 244.952 313.263 244.915C313.272 244.989 312.375 243.103 311.722 241.132C311.018 239.099 310.267 236.614 309.476 233.835C309.08 232.444 308.671 230.967 308.235 229.414C308.01 228.617 307.792 227.837 307.505 226.9C307.468 226.779 307.432 226.663 307.393 226.542C307.347 226.397 307.3 226.254 307.25 226.107C307.207 225.982 307.129 225.757 307.04 225.527C306.987 225.395 306.965 225.331 306.837 225.04C306.78 224.912 306.712 224.767 306.619 224.585C306.571 224.493 306.518 224.393 306.452 224.278C306.419 224.22 306.383 224.159 306.344 224.093C306.324 224.06 306.303 224.027 306.281 223.991C306.229 223.908 306.167 223.814 306.097 223.711C305.793 223.304 305.459 222.73 304.26 221.825C303.647 221.39 302.745 220.837 301.338 220.537C299.963 220.219 298.015 220.394 296.609 221.081C293.659 222.572 293.072 224.444 292.688 225.282C292.346 226.203 292.29 226.731 292.239 227.07C292.166 227.664 292.171 227.974 292.17 228.247C292.173 228.548 292.18 228.63 292.185 228.758C292.192 228.877 292.199 228.987 292.207 229.095C292.226 229.336 292.237 229.447 292.253 229.599C292.267 229.745 292.283 229.893 292.301 230.046C292.614 232.882 292.782 236.27 292.815 239.563C292.829 241.216 292.805 242.879 292.714 244.436C292.669 245.21 292.605 245.964 292.522 246.605C292.481 246.919 292.434 247.212 292.393 247.42C292.355 247.624 292.303 247.77 292.367 247.607C291.052 251.124 289.644 254.368 287.979 257.378C287.537 258.18 287.068 258.985 286.568 259.793C283.844 264.145 280.996 268.598 277.681 271.83C276.128 273.342 274.517 274.801 272.864 276.203C270.853 277.911 268.778 279.531 266.692 281.096C260.002 286.3 254.291 289.289 249.732 290.862C249.271 291.027 248.775 291.17 248.3 291.287C241.666 292.83 232.702 293.324 225.727 291.758C222.723 291.06 220.068 290.59 217.637 289.979C216.203 289.624 214.834 289.233 213.506 288.798C207.415 287.147 203.855 286.137 202.885 284.836C202.657 284.662 202.034 283.079 201.819 281.779C201.582 280.587 201.4 279.321 201.012 277.671C200.768 276.804 200.676 275.962 199.678 274.193C199.156 273.396 198.007 271.505 195.019 270.885C192.088 270.458 190.623 271.572 189.784 272.073C187.563 273.778 187.515 274.682 187.105 275.335C186.795 275.99 186.625 276.444 186.466 276.845C186.161 277.631 185.935 278.172 185.752 278.515C184.883 280.07 183.973 281.686 182.933 283.393C181.394 285.894 179.491 288.845 177.201 291.063C174.804 293.292 172.593 295.652 170.01 297.606C167.966 299.158 165.963 300.277 163.941 301.172C160.044 302.554 154.091 303.006 149.993 303.342C146.452 303.595 143.24 303.706 140.079 303.641C135.444 303.525 130.786 303.293 125.239 302.424C123.923 302.214 122.611 301.978 121.265 301.723C117.287 300.954 113.214 298.754 111.539 296.385C108.65 292.628 106.44 289.899 105.423 287.303C105.109 286.547 104.855 285.743 104.666 284.867C103.995 281.788 103.476 278.49 102.988 274.932C102.145 268.765 101.377 262.199 100.517 256.151C100.48 255.881 100.439 255.613 100.391 255.335C100.188 254.449 100.236 253.781 99.2521 251.889C98.9504 251.399 98.5371 250.694 97.4508 249.932C96.3834 249.122 94.4341 248.816 93.3904 249.074C91.3001 249.58 91.0662 250.105 90.7594 250.249C89.3611 251.301 88.245 251.948 87.7065 252.141C85.6894 252.63 84.4546 253.237 83.2912 253.685C82.2606 254.098 81.3277 254.442 80.4069 254.72C76.9056 255.493 73.1931 255.528 69.3739 255.14C69.2086 255.11 69.0393 255.078 68.866 255.044C68.3874 254.952 67.908 254.855 67.4011 254.748C63.9986 254.092 59.9188 252.731 53.9809 251.894C53.8831 251.882 53.7864 251.87 53.6905 251.86C44.3172 251.569 38.9677 250.1 32.3702 246.224C31.3294 245.598 30.3203 244.936 29.2905 244.199C25.498 241.461 21.4645 237.957 19.0462 233.856C19.014 233.799 18.9826 233.743 18.9519 233.687C16.2653 228.906 13.1136 224.213 12.3945 220.063C12.2492 219.252 12.1982 218.49 12.2372 217.78C12.5743 210.239 12.5348 202.955 13.107 198.699C13.3474 196.844 13.5523 195.394 13.9467 193.879C13.9482 193.872 13.9496 193.865 13.951 193.859C13.9779 193.756 14.0064 193.653 14.0355 193.55C14.1127 193.374 14.1925 193.198 14.2764 193.019C17.3089 186.416 18.9568 179.932 21.9019 175.214C22.1472 174.75 23.7696 173.394 25.5811 172.146C26.5136 171.468 27.5136 170.815 28.805 169.621C29.4363 168.964 30.2809 168.325 31.0962 166.321C31.4872 165.321 31.6924 163.706 31.2548 162.277C30.8264 160.837 30.0965 159.954 29.4813 159.329C27.8123 157.85 27.2253 157.922 26.711 157.668C26.2279 157.495 25.9173 157.4 25.6474 157.308C25.1202 157.132 24.7886 156.996 24.5142 156.855C23.9778 156.572 23.6999 156.321 23.3785 155.898C23.0303 155.445 22.703 155.035 22.3852 154.636C21.6257 153.626 20.9063 152.661 20.2362 151.705C16.8992 147.069 14.9711 142.363 14.6468 139.375C14.5084 138.308 14.3104 136.748 14.4134 134.901C14.6335 129.651 14.8124 122.398 15.0817 114.978C15.3456 108.556 15.5496 101.723 16.5784 97.3201C16.7278 96.6523 16.8838 95.9746 17.0357 95.3394C17.8445 91.9587 18.3821 88.7156 19.061 85.483C19.6922 82.5056 20.4808 79.3489 21.7631 76.8757C22.1724 76.0606 22.818 75.237 22.8541 75.3248C23.2582 74.9562 23.6665 74.5957 24.0763 74.2487C25.3076 73.2048 26.5291 72.3099 27.727 71.638C28.4528 71.2346 29.5661 70.5556 31.5708 69.9157C33.0112 69.4653 34.6305 68.9989 36.423 68.5713C39.4096 67.8443 43.0871 67.2562 47.21 66.5526C47.834 66.4656 48.4495 66.3782 49.0787 66.2862C52.4717 65.7962 55.9005 65.4656 59.168 65.4011C60.7962 65.3707 62.3967 65.4112 63.7876 65.5612C64.4756 65.6349 65.1175 65.7413 65.5715 65.857C65.7945 65.9129 65.9704 65.9727 66.0348 66.0024C66.0965 66.0264 66.0501 66.0406 65.7508 65.8528C65.1464 65.4357 65.1034 65.3189 65.0706 65.3027C65.0556 65.2899 65.1277 65.3833 65.2164 65.5177C65.3997 65.7916 65.6603 66.2275 65.93 66.7143C66.2044 67.2077 66.4865 67.7465 66.8384 68.4033C67.0246 68.7449 67.1899 69.0676 67.5522 69.6579C67.6522 69.8168 67.7546 69.9818 67.9641 70.2735C68.0841 70.4362 68.1568 70.5411 68.4106 70.8402C68.7046 71.1416 68.7728 71.3712 69.9726 72.227C70.12 72.3251 70.2848 72.4274 70.4729 72.5322C70.567 72.5846 70.6669 72.6375 70.7735 72.6906C70.8268 72.7171 70.8817 72.7436 70.9385 72.7701C71.0019 72.7999 71.1101 72.8485 71.2026 72.8872C71.9627 73.2042 73.0824 73.5337 74.5204 73.4394C77.6368 73.3287 80.036 70.6983 80.5421 69.4095C81.3308 67.7038 81.2437 66.9416 81.3018 66.6163C81.3524 65.7431 81.3134 65.5846 81.2959 65.2451C81.288 65.1331 81.2798 65.0213 81.2712 64.9096C81.2231 62.4462 81.2991 60.7948 81.5412 59.4256C81.712 58.4589 81.9573 57.664 82.2288 56.8705C82.6014 55.7957 83.0153 54.7219 83.4674 53.3145C83.819 52.2131 84.1331 50.9478 84.2305 50.0706C84.2751 49.6581 84.2658 49.3379 84.2625 49.0388C84.2595 48.6952 84.2589 48.3969 84.3617 48.0473C84.4353 47.7987 84.5715 47.5604 84.7445 47.2648C85.0198 46.8008 85.3803 46.2018 85.7706 45.2379C86.1821 44.2256 86.6603 43.1869 87.2111 42.137C88.98 38.7747 90.8484 35.2628 92.7214 32.2965C93.9016 30.4199 95.1367 28.7538 96.0475 27.8368C99.1467 24.5994 100.597 22.929 102.02 21.9322C102.79 21.3728 103.576 20.8863 104.52 20.4691C104.114 20.6255 104.142 20.5927 104.189 20.5792C104.245 20.5588 104.386 20.5192 104.551 20.479C104.885 20.3971 105.338 20.3052 105.812 20.2216C106.77 20.0522 107.886 19.9005 109.037 19.7753C111.361 19.5233 113.886 19.3687 116.442 19.3081C119.836 19.2265 123.3 19.3148 126.535 19.5356C128.266 19.6573 129.934 19.7664 131.508 19.8698C136.204 20.1894 141.103 20.5773 145.154 21.1982C148.536 21.7166 151.059 22.437 153.399 23.4044C154.876 24.0129 156.296 24.564 157.655 25.049C158.538 25.3641 159.714 25.5701 161.163 25.8182C162.194 25.9959 163.372 26.1976 164.655 26.4739C166.528 27.2477 168.404 28.0481 169.639 28.7246C171.415 29.6817 172.862 31.203 174.42 33.7037C174.474 33.8564 174.529 34.0146 174.584 34.1777C174.584 34.1803 174.585 34.183 174.586 34.1856C174.778 34.7587 174.972 35.3833 175.172 36.0601C175.847 38.8106 176.418 44.1067 179.272 52.1915C179.753 53.4749 180.253 54.5967 180.892 55.7716C181.653 56.9945 181.927 58.0539 184.537 60.4768C185.36 61.1455 186.655 62.1609 188.964 62.6638C191.18 63.1956 193.935 62.5138 195.207 61.7371C198.071 59.9871 198.37 58.8725 199.054 57.8874C199.408 57.3146 199.525 57.0367 199.649 56.7659C199.765 56.5019 199.842 56.2986 199.913 56.1048C200.048 55.7276 200.141 55.4177 200.223 55.1213C200.386 54.533 200.503 54.0079 200.612 53.4733C200.905 52.0144 201.095 50.6183 201.224 49.1565C201.341 47.9896 201.492 46.7611 201.655 45.504C202.1 42.0832 202.611 38.5862 203 35.6253C203.027 35.4194 203.057 35.199 203.092 34.9714C203.196 34.2979 203.337 33.5376 203.532 32.6985C204.05 30.571 204.687 28.2503 205.419 26.1579C206.56 24.0136 207.915 22.384 209.144 21.5625C214.103 18.39 223.755 16.9324 232.112 16.5793C235.694 16.4344 239.329 16.4725 242.723 16.7852C248.593 17.1341 250.91 17.2223 253.722 18.8871C258.697 22.3935 264.814 30.7996 269.339 38.098C270.689 40.2773 271.923 42.539 273.033 44.8633C277.079 53.2597 279.646 61.9166 281.258 68.5564C282.883 75.189 283.779 79.3078 285.425 79.4922C286.976 79.685 289.268 75.7295 290.025 67.9861C290.791 60.2884 289.392 49.5552 284.946 39.4514C283.73 36.6568 282.36 33.9235 280.84 31.2683C275.578 22.7018 271.717 14.9375 261.361 6.76069C256.321 3.26548 249.239 2.40069 245.36 2.18564C244.987 2.14099 244.652 2.09529 244.374 2.04792C243.898 1.97832 243.396 1.91182 242.922 1.85344C235.828 1.02491 229.512 0.745332 222.933 0.958014C221.424 1.01365 219.905 1.10356 218.361 1.24188Z" fill="#4C6EB6"/>
</svg>
